<svg width="32" height="32" viewBox="0 0 32 32" fill="none" xmlns="http://www.w3.org/2000/svg">
<circle opacity="0.2" cx="16" cy="16" r="16" fill="#4A7CDF"/>
<path d="M11.4897 21.7942C12.2007 21.11 12.7441 20.5935 13.1197 20.2447C14.4478 18.9702 15.4204 17.9976 16.0375 17.3269C16.6546 16.6561 17.1375 15.9652 17.4863 15.2542C17.8486 14.5432 18.0297 13.7718 18.0297 12.9401C18.0297 11.9742 17.7748 11.2297 17.265 10.7065C16.7686 10.1833 16.1515 9.92167 15.4137 9.92167C14.5954 9.92167 13.8843 10.2168 13.2807 10.8071C12.6904 11.3973 12.2946 12.2425 12.0934 13.3426H11.691C11.691 12.6718 11.7178 12.1419 11.7714 11.7528C11.8251 11.3504 11.9593 11.0083 12.1739 10.7266C12.5495 10.2705 13.0861 9.88813 13.7837 9.57958C14.4947 9.27103 15.2393 9.11675 16.0174 9.11675C17.0772 9.11675 18.0095 9.39847 18.8144 9.96191C19.6328 10.5119 20.0419 11.5047 20.0419 12.9401C20.0419 13.7853 19.8407 14.5768 19.4383 15.3146C19.0492 16.0524 18.5394 16.7433 17.9089 17.3872C17.2918 18.0178 16.4131 18.8361 15.2728 19.8422C14.0923 20.902 13.3008 21.6198 12.8983 21.9954H17.426C18.2443 21.9954 18.8681 21.821 19.2974 21.4722C19.7267 21.1234 19.9413 20.5935 19.9413 19.8825H20.3438V21.1905C20.3438 22.2637 19.7736 22.8003 18.6333 22.8003H11.4897V21.7942Z" fill="#4A7CDF"/>
</svg>
