<svg width="32" height="32" viewBox="0 0 32 32" fill="none" xmlns="http://www.w3.org/2000/svg">
<circle opacity="0.2" cx="16" cy="16" r="16" fill="#4A7CDF"/>
<path d="M11.4897 21.7939C12.2007 21.1097 12.7441 20.5932 13.1197 20.2444C14.4478 18.97 15.4204 17.9974 16.0375 17.3266C16.6546 16.6559 17.1375 15.965 17.4863 15.254C17.8486 14.543 18.0297 13.7716 18.0297 12.9399C18.0297 11.974 17.7748 11.2294 17.265 10.7062C16.7686 10.183 16.1515 9.92142 15.4137 9.92142C14.5954 9.92142 13.8843 10.2166 13.2807 10.8068C12.6904 11.3971 12.2946 12.2423 12.0934 13.3423H11.691C11.691 12.6715 11.7178 12.1416 11.7714 11.7526C11.8251 11.3501 11.9593 11.0081 12.1739 10.7263C12.5495 10.2702 13.0861 9.88788 13.7837 9.57933C14.4947 9.27078 15.2393 9.11651 16.0174 9.11651C17.0772 9.11651 18.0095 9.39823 18.8144 9.96167C19.6328 10.5117 20.0419 11.5044 20.0419 12.9399C20.0419 13.785 19.8407 14.5765 19.4383 15.3143C19.0492 16.0522 18.5394 16.7431 17.9089 17.387C17.2918 18.0175 16.4131 18.8358 15.2728 19.842C14.0923 20.9018 13.3008 21.6195 12.8983 21.9951H17.426C18.2443 21.9951 18.8681 21.8207 19.2974 21.4719C19.7267 21.1231 19.9413 20.5932 19.9413 19.8822H20.3438V21.1902C20.3438 22.2634 19.7736 22.8 18.6333 22.8H11.4897V21.7939Z" fill="#4A7CDF"/>
</svg>
