<svg width="32" height="32" viewBox="0 0 32 32" fill="none" xmlns="http://www.w3.org/2000/svg">
<circle opacity="0.2" cx="16" cy="16" r="16" fill="#4A7CDF"/>
<path d="M16.0174 23.2028C15.0515 23.2028 14.1996 23.0216 13.4618 22.6594C12.7373 22.2838 12.0733 21.7472 11.4696 21.0496L11.7916 20.6874C12.3148 21.2642 12.8782 21.6935 13.4819 21.9753C14.0856 22.257 14.763 22.3978 15.5143 22.3978C16.3863 22.3978 17.104 22.1228 17.6674 21.5728C18.2443 21.0094 18.5327 20.1776 18.5327 19.0776C18.5327 18.4068 18.4053 17.8367 18.1504 17.3671C17.8955 16.8976 17.5668 16.5488 17.1644 16.3207C16.7619 16.0793 16.346 15.9585 15.9168 15.9585C15.3533 15.9585 14.9374 15.9786 14.6691 16.0189C14.4008 16.0591 14.0118 16.1396 13.502 16.2604L12.9788 15.4152L18.4321 10.3241H14.7094C13.8911 10.3241 13.2672 10.4985 12.838 10.8473C12.4087 11.1961 12.194 11.726 12.194 12.437H11.7916V11.129C11.7916 10.0558 12.3617 9.51921 13.502 9.51921H19.9011V10.3241L14.5082 15.3548C15.0314 15.2207 15.635 15.1536 16.3192 15.1536C16.8558 15.1536 17.4461 15.2676 18.09 15.4957C18.734 15.7103 19.3041 16.1128 19.8005 16.7031C20.2968 17.2799 20.545 18.0714 20.545 19.0776C20.545 20.1508 20.2901 20.9959 19.7803 21.613C19.284 22.2301 18.6937 22.646 18.0095 22.8607C17.3254 23.0887 16.6613 23.2028 16.0174 23.2028Z" fill="#4A7CDF"/>
</svg>
