<svg width="32" height="32" viewBox="0 0 32 32" fill="none" xmlns="http://www.w3.org/2000/svg">
<circle opacity="0.2" cx="16" cy="16" r="16" fill="#4A7CDF"/>
<path d="M16.0174 23.2025C15.0515 23.2025 14.1996 23.0214 13.4618 22.6592C12.7373 22.2836 12.0733 21.747 11.4696 21.0494L11.7916 20.6871C12.3148 21.264 12.8782 21.6933 13.4819 21.975C14.0856 22.2567 14.763 22.3976 15.5143 22.3976C16.3863 22.3976 17.104 22.1226 17.6674 21.5726C18.2443 21.0091 18.5327 20.1774 18.5327 19.0773C18.5327 18.4066 18.4053 17.8364 18.1504 17.3669C17.8955 16.8973 17.5668 16.5485 17.1644 16.3205C16.7619 16.079 16.346 15.9583 15.9168 15.9583C15.3533 15.9583 14.9374 15.9784 14.6691 16.0186C14.4008 16.0589 14.0118 16.1394 13.502 16.2601L12.9788 15.415L18.4321 10.3239H14.7094C13.8911 10.3239 13.2672 10.4983 12.838 10.8471C12.4087 11.1959 12.194 11.7258 12.194 12.4368H11.7916V11.1288C11.7916 10.0556 12.3617 9.51896 13.502 9.51896H19.9011V10.3239L14.5082 15.3546C15.0314 15.2204 15.635 15.1534 16.3192 15.1534C16.8558 15.1534 17.4461 15.2674 18.09 15.4955C18.734 15.7101 19.3041 16.1126 19.8005 16.7028C20.2968 17.2797 20.545 18.0712 20.545 19.0773C20.545 20.1505 20.2901 20.9957 19.7803 21.6128C19.284 22.2299 18.6937 22.6458 18.0095 22.8604C17.3254 23.0885 16.6613 23.2025 16.0174 23.2025Z" fill="#4A7CDF"/>
</svg>
