<svg width="32" height="32" viewBox="0 0 32 32" fill="none" xmlns="http://www.w3.org/2000/svg">
<circle opacity="0.2" cx="16" cy="16" r="16" fill="#4A7CDF"/>
<path d="M15.8363 23.2025C14.8838 23.2025 14.0722 23.0281 13.4014 22.6793C12.7306 22.3305 12.1001 21.8006 11.5099 21.0896L11.8922 20.7475C12.402 21.311 12.952 21.7268 13.5423 21.9951C14.1325 22.2634 14.7966 22.3976 15.5344 22.3976C16.4064 22.3976 17.1241 22.1226 17.6876 21.5726C18.2644 21.0091 18.5529 20.1774 18.5529 19.0773C18.5529 18.0443 18.2711 17.2663 17.7077 16.7431C17.1577 16.2199 16.3662 15.9583 15.3332 15.9583C14.7295 15.9583 14.1594 15.9918 13.6228 16.0589L12.8178 16.1595L12.0129 15.3546L12.2142 9.51896H19.7602V10.3239H13.8642L13.6831 15.254L14.3271 15.2137C15.0917 15.1735 15.5613 15.1534 15.7357 15.1534C17.0235 15.1534 18.1504 15.4485 19.1163 16.0388C20.0822 16.6156 20.5651 17.6285 20.5651 19.0773C20.5651 20.1371 20.3035 20.9756 19.7803 21.5927C19.2706 22.1964 18.6602 22.6122 17.9492 22.8403C17.2382 23.0818 16.5339 23.2025 15.8363 23.2025Z" fill="#4A7CDF"/>
</svg>
