<svg width="95" height="82" viewBox="0 0 95 82" fill="none" xmlns="http://www.w3.org/2000/svg">
<path d="M2.9231 60.667C1.94328 59.6872 1.45337 58.4977 1.45337 57.0986C1.45337 55.6995 1.94328 54.5101 2.9231 53.5303C3.90291 52.5505 5.09237 52.0605 6.49146 52.0605C6.9882 52.0605 7.46444 52.1312 7.92017 52.2725C8.3759 52.4092 8.75187 52.5755 9.0481 52.7715C9.34888 52.9674 9.61092 53.1657 9.83423 53.3662C10.0621 53.5667 10.2262 53.7376 10.3264 53.8789L10.4836 54.0908L9.77954 54.7197C9.7522 54.6742 9.71118 54.6149 9.65649 54.542C9.60181 54.4645 9.4742 54.3301 9.27368 54.1387C9.07316 53.9473 8.85441 53.7786 8.61743 53.6328C8.38501 53.4824 8.07739 53.3457 7.69458 53.2227C7.31177 53.0996 6.91073 53.0381 6.49146 53.0381C5.37036 53.0381 4.42472 53.4277 3.65454 54.207C2.88436 54.9863 2.49927 55.9502 2.49927 57.0986C2.49927 58.2471 2.88436 59.2109 3.65454 59.9902C4.42472 60.7695 5.37036 61.1592 6.49146 61.1592C6.91073 61.1592 7.31177 61.1022 7.69458 60.9883C8.07739 60.8698 8.39412 60.7285 8.64478 60.5645C8.89998 60.4004 9.12329 60.2386 9.3147 60.0791C9.5061 59.915 9.64282 59.7715 9.72485 59.6484L9.85474 59.4775L10.552 60.1133C10.5155 60.168 10.4586 60.2409 10.3811 60.332C10.3082 60.4186 10.1418 60.5781 9.88208 60.8105C9.62687 61.043 9.35571 61.2503 9.0686 61.4326C8.78149 61.6149 8.40324 61.779 7.93384 61.9248C7.46899 62.0661 6.9882 62.1367 6.49146 62.1367C5.09237 62.1367 3.90291 61.6468 2.9231 60.667ZM13.2112 60.1133V62H12.2336V55.2803H13.2112V58.8486L16.5676 55.2803H17.7639L15.1731 58.0078L18.0442 62H16.9231L14.5442 58.7119L13.2112 60.1133ZM20.7717 58.1514L23.3625 57.7275C23.3625 57.2308 23.2053 56.8275 22.8909 56.5176C22.5764 56.2077 22.1731 56.0527 21.6809 56.0527C21.3254 56.0527 20.9905 56.1348 20.676 56.2988C20.3661 56.4583 20.1405 56.6224 19.9993 56.791L19.7874 57.0303L19.1584 56.4014C19.1858 56.3649 19.2222 56.3193 19.2678 56.2646C19.318 56.2054 19.4228 56.1051 19.5823 55.9639C19.7463 55.818 19.9172 55.6882 20.095 55.5742C20.2727 55.4603 20.5051 55.36 20.7922 55.2734C21.0839 55.1823 21.3801 55.1367 21.6809 55.1367C22.4465 55.1367 23.08 55.3851 23.5813 55.8818C24.0872 56.3786 24.3401 56.9938 24.3401 57.7275V62H23.3625V61.0908C23.3443 61.1182 23.3147 61.1569 23.2737 61.207C23.2372 61.2526 23.1506 61.3369 23.0139 61.46C22.8818 61.5785 22.7382 61.6855 22.5833 61.7812C22.4283 61.8724 22.2232 61.9544 21.968 62.0273C21.7174 62.1003 21.4576 62.1367 21.1887 62.1367C20.5188 62.1367 19.9537 61.9385 19.4934 61.542C19.0377 61.1455 18.8098 60.6921 18.8098 60.1816C18.8098 59.6211 18.9784 59.1699 19.3157 58.8281C19.6529 58.4818 20.1383 58.2562 20.7717 58.1514ZM21.1887 61.2275C21.8222 61.2275 22.3417 61.0202 22.7473 60.6055C23.1575 60.1908 23.3625 59.653 23.3625 58.9922V58.5684L21.052 58.9922C20.2135 59.1517 19.7919 59.5482 19.7874 60.1816C19.7874 60.4824 19.9104 60.7331 20.1565 60.9336C20.4071 61.1296 20.7512 61.2275 21.1887 61.2275ZM30.9094 62V59.2725C30.3944 59.6462 29.7655 59.833 29.0227 59.833C28.2571 59.833 27.6327 59.5938 27.1497 59.1152C26.6711 58.6322 26.4319 58.0078 26.4319 57.2422V55.2803H27.4094V57.2422C27.4094 57.7253 27.5667 58.1263 27.8811 58.4453C28.1956 58.7598 28.5989 58.917 29.0911 58.917C29.4283 58.917 29.7473 58.8669 30.0481 58.7666C30.3534 58.6618 30.5722 58.5547 30.7043 58.4453L30.9094 58.2881V55.2803H31.8938V62H30.9094ZM35.6057 58.1514L38.1965 57.7275C38.1965 57.2308 38.0393 56.8275 37.7249 56.5176C37.4104 56.2077 37.0071 56.0527 36.5149 56.0527C36.1594 56.0527 35.8245 56.1348 35.51 56.2988C35.2001 56.4583 34.9745 56.6224 34.8333 56.791L34.6213 57.0303L33.9924 56.4014C34.0198 56.3649 34.0562 56.3193 34.1018 56.2646C34.1519 56.2054 34.2568 56.1051 34.4163 55.9639C34.5803 55.818 34.7512 55.6882 34.929 55.5742C35.1067 55.4603 35.3391 55.36 35.6262 55.2734C35.9179 55.1823 36.2141 55.1367 36.5149 55.1367C37.2805 55.1367 37.914 55.3851 38.4153 55.8818C38.9211 56.3786 39.1741 56.9938 39.1741 57.7275V62H38.1965V61.0908C38.1783 61.1182 38.1487 61.1569 38.1077 61.207C38.0712 61.2526 37.9846 61.3369 37.8479 61.46C37.7157 61.5785 37.5722 61.6855 37.4172 61.7812C37.2623 61.8724 37.0572 61.9544 36.802 62.0273C36.5514 62.1003 36.2916 62.1367 36.0227 62.1367C35.3528 62.1367 34.7877 61.9385 34.3274 61.542C33.8717 61.1455 33.6438 60.6921 33.6438 60.1816C33.6438 59.6211 33.8124 59.1699 34.1497 58.8281C34.4869 58.4818 34.9722 58.2562 35.6057 58.1514ZM36.0227 61.2275C36.6562 61.2275 37.1757 61.0202 37.5813 60.6055C37.9915 60.1908 38.1965 59.653 38.1965 58.9922V58.5684L35.886 58.9922C35.0474 59.1517 34.6259 59.5482 34.6213 60.1816C34.6213 60.4824 34.7444 60.7331 34.9905 60.9336C35.2411 61.1296 35.5852 61.2275 36.0227 61.2275ZM43.5217 53.0791C43.7177 53.2842 43.9934 53.3867 44.3489 53.3867C44.7043 53.3867 44.9801 53.2842 45.176 53.0791C45.372 52.874 45.47 52.5801 45.47 52.1973H46.2356C46.2356 52.7578 46.0601 53.2135 45.7092 53.5645C45.3629 53.9154 44.9094 54.0908 44.3489 54.0908C43.7883 54.0908 43.3326 53.9154 42.9817 53.5645C42.6308 53.2135 42.4553 52.7578 42.4553 52.1973H43.2278C43.2278 52.5801 43.3258 52.874 43.5217 53.0791ZM46.4475 55.2803H47.2883V62H46.304V56.9619L42.2434 62H41.4094V55.2803H42.387V60.3184L46.4475 55.2803ZM48.6897 56.1895V55.2803H54.425V56.1895H52.0461V62H51.0686V56.1895H48.6897ZM61.7805 59.0059L56.3186 58.9922C56.3551 59.5983 56.6034 60.1224 57.0637 60.5645C57.5286 61.0065 58.0732 61.2275 58.6975 61.2275C59.1168 61.2275 59.5064 61.1341 59.8665 60.9473C60.2265 60.7604 60.4817 60.5736 60.6321 60.3867L60.8713 60.1133L61.5002 60.7422C61.4729 60.7786 61.4319 60.8311 61.3772 60.8994C61.3271 60.9632 61.2131 61.0749 61.0354 61.2344C60.8622 61.3893 60.6731 61.5283 60.468 61.6514C60.2675 61.7699 60.0055 61.8815 59.6819 61.9863C59.3629 62.0866 59.0347 62.1367 58.6975 62.1367C57.7815 62.1367 56.9931 61.7972 56.3323 61.1182C55.6715 60.4346 55.3411 59.6074 55.3411 58.6367C55.3411 57.666 55.6669 56.8411 56.3186 56.1621C56.9749 55.4785 57.745 55.1367 58.6292 55.1367C59.5452 55.1367 60.3108 55.4557 60.926 56.0938C61.5413 56.7272 61.8489 57.5293 61.8489 58.5L61.7805 59.0059ZM60.1331 56.6475C59.7183 56.251 59.217 56.0527 58.6292 56.0527C58.0413 56.0527 57.5286 56.2601 57.0911 56.6748C56.6536 57.0895 56.3961 57.5817 56.3186 58.1514H60.8713C60.7984 57.5452 60.5523 57.0439 60.1331 56.6475ZM66.2649 55.2803H69.3411C69.9563 55.2803 70.4485 55.4466 70.8176 55.7793C71.1868 56.1074 71.3713 56.5244 71.3713 57.0303C71.3713 57.3174 71.3007 57.5794 71.1594 57.8164C71.0227 58.0488 70.8837 58.2106 70.7424 58.3018L70.5305 58.4316C70.5579 58.4408 70.5966 58.4544 70.6467 58.4727C70.7014 58.4909 70.7926 58.541 70.9202 58.623C71.0523 58.7005 71.1663 58.7939 71.262 58.9033C71.3622 59.0081 71.4511 59.1608 71.5286 59.3613C71.6106 59.5618 71.6516 59.7874 71.6516 60.0381C71.6516 60.6442 71.4625 61.1227 71.0842 61.4736C70.706 61.8245 70.1728 62 69.4846 62H66.2649V55.2803ZM69.4846 58.8486H67.2424V61.0908H69.4846C69.8674 61.0908 70.1614 60.9928 70.3665 60.7969C70.5715 60.6009 70.6741 60.3252 70.6741 59.9697C70.6741 59.6143 70.5715 59.3385 70.3665 59.1426C70.1614 58.9466 69.8674 58.8486 69.4846 58.8486ZM69.3411 58.0078C70.0429 58.0078 70.3938 57.7048 70.3938 57.0986C70.3938 56.4925 70.0429 56.1895 69.3411 56.1895H67.2424V58.0078H69.3411ZM79.4856 59.0059L74.0237 58.9922C74.0601 59.5983 74.3085 60.1224 74.7688 60.5645C75.2336 61.0065 75.7782 61.2275 76.4026 61.2275C76.8219 61.2275 77.2115 61.1341 77.5715 60.9473C77.9316 60.7604 78.1868 60.5736 78.3372 60.3867L78.5764 60.1133L79.2053 60.7422C79.178 60.7786 79.137 60.8311 79.0823 60.8994C79.0321 60.9632 78.9182 61.0749 78.7405 61.2344C78.5673 61.3893 78.3782 61.5283 78.1731 61.6514C77.9726 61.7699 77.7105 61.8815 77.387 61.9863C77.068 62.0866 76.7398 62.1367 76.4026 62.1367C75.4866 62.1367 74.6982 61.7972 74.0374 61.1182C73.3765 60.4346 73.0461 59.6074 73.0461 58.6367C73.0461 57.666 73.372 56.8411 74.0237 56.1621C74.6799 55.4785 75.4501 55.1367 76.3342 55.1367C77.2502 55.1367 78.0159 55.4557 78.6311 56.0938C79.2463 56.7272 79.554 57.5293 79.554 58.5L79.4856 59.0059ZM77.8381 56.6475C77.4234 56.251 76.9221 56.0527 76.3342 56.0527C75.7463 56.0527 75.2336 56.2601 74.7961 56.6748C74.3586 57.0895 74.1012 57.5817 74.0237 58.1514H78.5764C78.5035 57.5452 78.2574 57.0439 77.8381 56.6475ZM81.803 61.1182C81.1422 60.4346 80.8118 59.6074 80.8118 58.6367C80.8118 57.666 81.1422 56.8411 81.803 56.1621C82.4683 55.4785 83.2568 55.1367 84.1682 55.1367C84.6923 55.1367 85.1799 55.2507 85.6311 55.4785C86.0868 55.7018 86.4127 55.9251 86.6086 56.1484L86.9026 56.4697L86.1985 57.167C86.1803 57.1396 86.1529 57.1009 86.1165 57.0508C86.08 57.0007 85.998 56.9095 85.8704 56.7773C85.7473 56.6452 85.6129 56.5312 85.467 56.4355C85.3212 56.3353 85.1321 56.2464 84.8997 56.1689C84.6672 56.0915 84.4234 56.0527 84.1682 56.0527C83.5256 56.0527 82.9674 56.3034 82.4934 56.8047C82.024 57.3014 81.7893 57.9144 81.7893 58.6436C81.7893 59.3682 82.024 59.9811 82.4934 60.4824C82.9674 60.9792 83.5256 61.2275 84.1682 61.2275C84.5601 61.2275 84.9316 61.1341 85.2825 60.9473C85.6334 60.7604 85.8886 60.5736 86.0481 60.3867L86.2737 60.1133L86.9709 60.7422C86.9436 60.7786 86.9003 60.8311 86.8411 60.8994C86.7864 60.9632 86.6679 61.0749 86.4856 61.2344C86.3033 61.3893 86.1119 61.5283 85.9114 61.6514C85.7109 61.7699 85.4511 61.8815 85.1321 61.9863C84.8176 62.0866 84.4963 62.1367 84.1682 62.1367C83.2522 62.1367 82.4638 61.7972 81.803 61.1182ZM89.4866 61.0908H91.2502C91.6877 61.0908 92.0387 60.9678 92.303 60.7217C92.5719 60.471 92.7063 60.1497 92.7063 59.7578C92.7063 59.3659 92.5719 59.0469 92.303 58.8008C92.0387 58.5547 91.6832 58.4316 91.2366 58.4316H89.4866V61.0908ZM93.0276 58.1377C93.4651 58.5479 93.6838 59.0902 93.6838 59.7646C93.6838 60.4346 93.4674 60.9746 93.0344 61.3848C92.6015 61.7949 92.0068 62 91.2502 62H88.509V55.2803H89.4866V57.5225H91.2366C91.9931 57.5225 92.5901 57.7275 93.0276 58.1377ZM24.7229 78.1133V80H23.7454V73.2803H24.7229V76.8486L28.0793 73.2803H29.2756L26.6848 76.0078L29.5559 80H28.4348L26.0559 76.7119L24.7229 78.1133ZM32.2834 76.1514L34.8743 75.7275C34.8743 75.2308 34.717 74.8275 34.4026 74.5176C34.0881 74.2077 33.6848 74.0527 33.1926 74.0527C32.8372 74.0527 32.5022 74.1348 32.1877 74.2988C31.8778 74.4583 31.6523 74.6224 31.511 74.791L31.2991 75.0303L30.6702 74.4014C30.6975 74.3649 30.734 74.3193 30.7795 74.2646C30.8297 74.2054 30.9345 74.1051 31.094 73.9639C31.2581 73.818 31.429 73.6882 31.6067 73.5742C31.7844 73.4603 32.0168 73.36 32.304 73.2734C32.5956 73.1823 32.8918 73.1367 33.1926 73.1367C33.9583 73.1367 34.5917 73.3851 35.093 73.8818C35.5989 74.3786 35.8518 74.9938 35.8518 75.7275V80H34.8743V79.0908C34.856 79.1182 34.8264 79.1569 34.7854 79.207C34.7489 79.2526 34.6624 79.3369 34.5256 79.46C34.3935 79.5785 34.2499 79.6855 34.095 79.7812C33.94 79.8724 33.7349 79.9544 33.4797 80.0273C33.2291 80.1003 32.9693 80.1367 32.7004 80.1367C32.0305 80.1367 31.4654 79.9385 31.0051 79.542C30.5494 79.1455 30.3215 78.6921 30.3215 78.1816C30.3215 77.6211 30.4902 77.1699 30.8274 76.8281C31.1646 76.4818 31.65 76.2562 32.2834 76.1514ZM32.7004 79.2275C33.3339 79.2275 33.8534 79.0202 34.259 78.6055C34.6692 78.1908 34.8743 77.653 34.8743 76.9922V76.5684L32.5637 76.9922C31.7252 77.1517 31.3036 77.5482 31.2991 78.1816C31.2991 78.4824 31.4221 78.7331 31.6682 78.9336C31.9189 79.1296 32.2629 79.2275 32.7004 79.2275ZM37.2463 74.1895V73.2803H42.9817V74.1895H40.6028V80H39.6252V74.1895H37.2463ZM45.8596 76.1514L48.4504 75.7275C48.4504 75.2308 48.2932 74.8275 47.9788 74.5176C47.6643 74.2077 47.261 74.0527 46.7688 74.0527C46.4133 74.0527 46.0784 74.1348 45.7639 74.2988C45.454 74.4583 45.2284 74.6224 45.0872 74.791L44.8752 75.0303L44.2463 74.4014C44.2737 74.3649 44.3101 74.3193 44.3557 74.2646C44.4058 74.2054 44.5107 74.1051 44.6702 73.9639C44.8342 73.818 45.0051 73.6882 45.1829 73.5742C45.3606 73.4603 45.593 73.36 45.8801 73.2734C46.1718 73.1823 46.468 73.1367 46.7688 73.1367C47.5344 73.1367 48.1679 73.3851 48.6692 73.8818C49.175 74.3786 49.428 74.9938 49.428 75.7275V80H48.4504V79.0908C48.4322 79.1182 48.4026 79.1569 48.3616 79.207C48.3251 79.2526 48.2385 79.3369 48.1018 79.46C47.9696 79.5785 47.8261 79.6855 47.6711 79.7812C47.5162 79.8724 47.3111 79.9544 47.0559 80.0273C46.8053 80.1003 46.5455 80.1367 46.2766 80.1367C45.6067 80.1367 45.0416 79.9385 44.5813 79.542C44.1256 79.1455 43.8977 78.6921 43.8977 78.1816C43.8977 77.6211 44.0663 77.1699 44.4036 76.8281C44.7408 76.4818 45.2262 76.2562 45.8596 76.1514ZM46.2766 79.2275C46.9101 79.2275 47.4296 79.0202 47.8352 78.6055C48.2454 78.1908 48.4504 77.653 48.4504 76.9922V76.5684L46.1399 76.9922C45.3014 77.1517 44.8798 77.5482 44.8752 78.1816C44.8752 78.4824 44.9983 78.7331 45.2444 78.9336C45.495 79.1296 45.8391 79.2275 46.2766 79.2275ZM52.3606 73.2803H57.262V80H56.2776V74.1895H53.3381V75.2422C53.3381 76.2311 53.288 77.056 53.1877 77.7168C53.092 78.373 52.9462 78.8743 52.7502 79.2207C52.5543 79.5625 52.3378 79.8018 52.1008 79.9385C51.8639 80.0706 51.5767 80.1367 51.2395 80.1367C51.1256 80.1367 51.0094 80.1253 50.8909 80.1025C50.7769 80.0798 50.6926 80.0547 50.6379 80.0273L50.5422 80V79.0225C50.7291 79.1136 50.9159 79.1592 51.1028 79.1592C51.3899 79.1592 51.6155 79.0771 51.7795 78.9131C51.9436 78.749 52.0803 78.3708 52.1897 77.7783C52.3036 77.1859 52.3606 76.3405 52.3606 75.2422V73.2803ZM64.1594 78.4824C64.6425 77.9811 64.884 77.3682 64.884 76.6436C64.884 75.9144 64.6425 75.3014 64.1594 74.8047C63.6809 74.3034 63.1044 74.0527 62.4299 74.0527C61.76 74.0527 61.1835 74.3034 60.7004 74.8047C60.2219 75.3014 59.9827 75.9121 59.9827 76.6367C59.9827 77.3568 60.2219 77.9697 60.7004 78.4756C61.1835 78.9769 61.76 79.2275 62.4299 79.2275C63.1044 79.2275 63.6809 78.9792 64.1594 78.4824ZM60.0032 79.125C59.3378 78.4505 59.0051 77.6234 59.0051 76.6436C59.0051 75.6592 59.3378 74.8298 60.0032 74.1553C60.6731 73.4762 61.4843 73.1367 62.4368 73.1367C63.3892 73.1367 64.1982 73.4762 64.8635 74.1553C65.5289 74.8298 65.8616 75.6592 65.8616 76.6436C65.8616 77.6234 65.5289 78.4505 64.8635 79.125C64.1982 79.7995 63.3892 80.1367 62.4368 80.1367C61.4843 80.1367 60.6731 79.7995 60.0032 79.125ZM72.0959 73.2803V74.1895H68.5959V80H67.6184V73.2803H72.0959Z" fill="#212225"/>
<g clip-path="url(#clip0_1_854)">
<path d="M59.7943 11.7823C61.4301 11.7562 63.0247 12.296 64.3082 13.3104C65.3967 14.1621 66.209 15.3167 66.643 16.6289C67.0769 17.9411 67.1132 19.3524 66.7471 20.6851C65.9815 23.3913 63.591 25.4537 60.8255 25.7818C60.451 25.8258 60.0744 25.8487 59.6974 25.8505C57.5756 25.8505 55.4538 25.8505 53.332 25.8505H52.8633V25.4084C52.8633 23.6647 52.8633 21.9194 52.8633 20.1758C52.8633 17.9712 51.3649 16.479 49.1588 16.4759C47.701 16.4759 46.2432 16.4759 44.7839 16.4759C42.6621 16.4759 41.1513 17.9977 41.1466 20.1242C41.1466 22.0116 41.1466 23.8991 41.1466 25.8177C41.0457 25.8338 40.944 25.8443 40.8419 25.849C39.3326 25.849 37.8217 25.863 36.3108 25.849C35.0457 25.83 33.7973 25.5571 32.6396 25.0466C31.4819 24.536 30.4385 23.7982 29.5713 22.8768C28.7041 21.9554 28.0308 20.8693 27.5913 19.6828C27.1518 18.4963 26.9551 17.2336 27.0128 15.9697C27.2377 11.473 30.8907 7.62937 35.3781 7.17158C35.6734 7.12337 35.9727 7.10453 36.2718 7.11533C36.6671 7.15596 36.8092 7.00909 36.9389 6.6341C38.1373 3.14517 40.5138 0.88589 44.1511 0.171855C48.2135 -0.628114 52.2086 1.42181 54.1086 5.1326C54.3961 5.69508 54.5773 6.31536 54.8257 6.89815C54.8573 6.97435 54.9037 7.04353 54.9621 7.10173C55.0206 7.15992 55.09 7.20596 55.1663 7.2372C57.5584 7.81061 59.0959 9.26837 59.7412 11.6448C59.7566 11.6915 59.7743 11.7374 59.7943 11.7823Z" fill="#8C7C53" fill-opacity="0.5"/>
<path d="M50.5196 30.5394C51.3008 30.5394 52.0133 30.5394 52.7289 30.5394C53.2586 30.5394 53.6742 30.7222 53.9117 31.2066C54.1492 31.691 54.0179 32.1613 53.6726 32.5769C51.7841 34.8684 49.8962 37.1569 48.0088 39.4422C47.3916 40.1891 46.6151 40.1891 46.0026 39.4422C44.1131 37.1506 42.2246 34.8622 40.3372 32.5769C39.9919 32.1613 39.845 31.7175 40.0903 31.2097C40.3356 30.7019 40.7653 30.5254 41.3075 30.5348C42.0199 30.5457 42.7324 30.5348 43.4855 30.5348V30.0473C43.4855 26.7672 43.4855 23.4861 43.4855 20.2039C43.4855 19.2664 43.9292 18.818 44.8683 18.818H49.1243C50.0696 18.818 50.5165 19.2602 50.5165 20.1961C50.5165 23.4772 50.5165 26.7583 50.5165 30.0395L50.5196 30.5394Z" fill="#8C7C53" fill-opacity="0.5"/>
</g>
<defs>
<clipPath id="clip0_1_854">
<rect width="40.0016" height="40" fill="white" transform="translate(27.0002)"/>
</clipPath>
</defs>
</svg>
