<svg width="79" height="79" viewBox="0 0 79 79" fill="none" xmlns="http://www.w3.org/2000/svg">
<circle cx="39.5001" cy="39.5" r="39" fill="url(#paint0_linear_1_396)" stroke="url(#paint1_linear_1_396)"/>
<path d="M23.1251 48.1836C22.5652 47.6237 22.2853 46.944 22.2853 46.1445C22.2853 45.3451 22.5652 44.6654 23.1251 44.1055C23.685 43.5456 24.3647 43.2656 25.1642 43.2656C25.448 43.2656 25.7202 43.306 25.9806 43.3867C26.241 43.4648 26.4559 43.5599 26.6251 43.6719C26.797 43.7839 26.9467 43.8971 27.0743 44.0117C27.2045 44.1263 27.2983 44.224 27.3556 44.3047L27.4454 44.4258L27.0431 44.7852C27.0275 44.7591 27.004 44.7253 26.9728 44.6836C26.9415 44.6393 26.8686 44.5625 26.754 44.4531C26.6394 44.3438 26.5144 44.2474 26.379 44.1641C26.2462 44.0781 26.0704 44 25.8517 43.9297C25.6329 43.8594 25.4038 43.8242 25.1642 43.8242C24.5236 43.8242 23.9832 44.0469 23.5431 44.4922C23.103 44.9375 22.8829 45.4883 22.8829 46.1445C22.8829 46.8008 23.103 47.3516 23.5431 47.7969C23.9832 48.2422 24.5236 48.4648 25.1642 48.4648C25.4038 48.4648 25.6329 48.4323 25.8517 48.3672C26.0704 48.2995 26.2514 48.2188 26.3947 48.125C26.5405 48.0312 26.6681 47.9388 26.7775 47.8477C26.8868 47.7539 26.965 47.6719 27.0118 47.6016L27.0861 47.5039L27.4845 47.8672C27.4637 47.8984 27.4311 47.9401 27.3868 47.9922C27.3452 48.0417 27.2501 48.1328 27.1017 48.2656C26.9559 48.3984 26.8009 48.5169 26.6368 48.6211C26.4728 48.7253 26.2566 48.819 25.9884 48.9023C25.7228 48.9831 25.448 49.0234 25.1642 49.0234C24.3647 49.0234 23.685 48.7435 23.1251 48.1836ZM29.004 47.8672V48.9453H28.4454V45.1055H29.004V47.1445L30.922 45.1055H31.6056L30.1251 46.6641L31.7657 48.9453H31.1251L29.7657 47.0664L29.004 47.8672ZM33.3243 46.7461L34.8048 46.5039C34.8048 46.2201 34.715 45.9896 34.5353 45.8125C34.3556 45.6354 34.1251 45.5469 33.8439 45.5469C33.6407 45.5469 33.4493 45.5938 33.2697 45.6875C33.0926 45.7786 32.9637 45.8724 32.8829 45.9688L32.7618 46.1055L32.4025 45.7461C32.4181 45.7253 32.4389 45.6992 32.465 45.668C32.4936 45.6341 32.5535 45.5768 32.6447 45.4961C32.7384 45.4128 32.8361 45.3385 32.9376 45.2734C33.0392 45.2083 33.172 45.151 33.3361 45.1016C33.5027 45.0495 33.672 45.0234 33.8439 45.0234C34.2814 45.0234 34.6434 45.1654 34.9298 45.4492C35.2189 45.7331 35.3634 46.0846 35.3634 46.5039V48.9453H34.8048V48.4258C34.7944 48.4414 34.7775 48.4635 34.754 48.4922C34.7332 48.5182 34.6837 48.5664 34.6056 48.6367C34.5301 48.7044 34.448 48.7656 34.3595 48.8203C34.271 48.8724 34.1538 48.9193 34.0079 48.9609C33.8647 49.0026 33.7163 49.0234 33.5626 49.0234C33.1798 49.0234 32.8569 48.9102 32.5939 48.6836C32.3335 48.457 32.2032 48.1979 32.2032 47.9062C32.2032 47.5859 32.2996 47.3281 32.4923 47.1328C32.685 46.9349 32.9624 46.806 33.3243 46.7461ZM33.5626 48.5039C33.9246 48.5039 34.2215 48.3854 34.4532 48.1484C34.6876 47.9115 34.8048 47.6042 34.8048 47.2266V46.9844L33.4845 47.2266C33.0053 47.3177 32.7644 47.5443 32.7618 47.9062C32.7618 48.0781 32.8322 48.2214 32.9728 48.3359C33.116 48.4479 33.3126 48.5039 33.5626 48.5039ZM39.1173 48.9453V47.3867C38.823 47.6003 38.4637 47.707 38.0392 47.707C37.6017 47.707 37.2449 47.5703 36.9689 47.2969C36.6954 47.0208 36.5587 46.6641 36.5587 46.2266V45.1055H37.1173V46.2266C37.1173 46.5026 37.2072 46.7318 37.3868 46.9141C37.5665 47.0938 37.797 47.1836 38.0782 47.1836C38.271 47.1836 38.4532 47.1549 38.6251 47.0977C38.7996 47.0378 38.9246 46.9766 39.0001 46.9141L39.1173 46.8242V45.1055H39.6798V48.9453H39.1173ZM41.8009 46.7461L43.2814 46.5039C43.2814 46.2201 43.1915 45.9896 43.0118 45.8125C42.8322 45.6354 42.6017 45.5469 42.3204 45.5469C42.1173 45.5469 41.9259 45.5938 41.7462 45.6875C41.5691 45.7786 41.4402 45.8724 41.3595 45.9688L41.2384 46.1055L40.879 45.7461C40.8947 45.7253 40.9155 45.6992 40.9415 45.668C40.9702 45.6341 41.0301 45.5768 41.1212 45.4961C41.215 45.4128 41.3126 45.3385 41.4142 45.2734C41.5157 45.2083 41.6486 45.151 41.8126 45.1016C41.9793 45.0495 42.1486 45.0234 42.3204 45.0234C42.7579 45.0234 43.1199 45.1654 43.4064 45.4492C43.6954 45.7331 43.84 46.0846 43.84 46.5039V48.9453H43.2814V48.4258C43.271 48.4414 43.254 48.4635 43.2306 48.4922C43.2098 48.5182 43.1603 48.5664 43.0822 48.6367C43.0066 48.7044 42.9246 48.7656 42.8361 48.8203C42.7475 48.8724 42.6303 48.9193 42.4845 48.9609C42.3413 49.0026 42.1928 49.0234 42.0392 49.0234C41.6564 49.0234 41.3335 48.9102 41.0704 48.6836C40.81 48.457 40.6798 48.1979 40.6798 47.9062C40.6798 47.5859 40.7762 47.3281 40.9689 47.1328C41.1616 46.9349 41.4389 46.806 41.8009 46.7461ZM42.0392 48.5039C42.4012 48.5039 42.698 48.3854 42.9298 48.1484C43.1642 47.9115 43.2814 47.6042 43.2814 47.2266V46.9844L41.9611 47.2266C41.4819 47.3177 41.241 47.5443 41.2384 47.9062C41.2384 48.0781 41.3087 48.2214 41.4493 48.3359C41.5926 48.4479 41.7892 48.5039 42.0392 48.5039ZM46.3243 43.8477C46.4363 43.9648 46.5939 44.0234 46.797 44.0234C47.0001 44.0234 47.1577 43.9648 47.2697 43.8477C47.3816 43.7305 47.4376 43.5625 47.4376 43.3438H47.8751C47.8751 43.6641 47.7749 43.9245 47.5743 44.125C47.3764 44.3255 47.1173 44.4258 46.797 44.4258C46.4767 44.4258 46.2163 44.3255 46.0157 44.125C45.8152 43.9245 45.715 43.6641 45.715 43.3438H46.1564C46.1564 43.5625 46.2124 43.7305 46.3243 43.8477ZM47.9962 45.1055H48.4767V48.9453H47.9142V46.0664L45.5939 48.9453H45.1173V45.1055H45.6759V47.9844L47.9962 45.1055ZM49.2775 45.625V45.1055H52.5548V45.625H51.1954V48.9453H50.6368V45.625H49.2775ZM56.7579 47.2344L53.6368 47.2266C53.6577 47.5729 53.7996 47.8724 54.0626 48.125C54.3282 48.3776 54.6394 48.5039 54.9962 48.5039C55.2358 48.5039 55.4585 48.4505 55.6642 48.3438C55.8699 48.237 56.0157 48.1302 56.1017 48.0234L56.2384 47.8672L56.5978 48.2266C56.5822 48.2474 56.5587 48.2773 56.5275 48.3164C56.4988 48.3529 56.4337 48.4167 56.3322 48.5078C56.2332 48.5964 56.1251 48.6758 56.0079 48.7461C55.8934 48.8138 55.7436 48.8776 55.5587 48.9375C55.3764 48.9948 55.1889 49.0234 54.9962 49.0234C54.4728 49.0234 54.0223 48.8294 53.6447 48.4414C53.267 48.0508 53.0782 47.5781 53.0782 47.0234C53.0782 46.4688 53.2644 45.9974 53.6368 45.6094C54.0118 45.2188 54.4519 45.0234 54.9572 45.0234C55.4806 45.0234 55.9181 45.2057 56.2697 45.5703C56.6212 45.9323 56.797 46.3906 56.797 46.9453L56.7579 47.2344ZM55.8165 45.8867C55.5795 45.6602 55.2931 45.5469 54.9572 45.5469C54.6212 45.5469 54.3282 45.6654 54.0782 45.9023C53.8282 46.1393 53.6811 46.4206 53.6368 46.7461H56.2384C56.1967 46.3997 56.0561 46.1133 55.8165 45.8867ZM16.8282 55.1055H18.5861C18.9376 55.1055 19.2189 55.2005 19.4298 55.3906C19.6407 55.5781 19.7462 55.8164 19.7462 56.1055C19.7462 56.2695 19.7059 56.4193 19.6251 56.5547C19.547 56.6875 19.4676 56.7799 19.3868 56.832L19.2657 56.9062C19.2814 56.9115 19.3035 56.9193 19.3322 56.9297C19.3634 56.9401 19.4155 56.9688 19.4884 57.0156C19.5639 57.0599 19.629 57.1133 19.6837 57.1758C19.741 57.2357 19.7918 57.3229 19.8361 57.4375C19.8829 57.5521 19.9064 57.681 19.9064 57.8242C19.9064 58.1706 19.7983 58.444 19.5822 58.6445C19.366 58.8451 19.0613 58.9453 18.6681 58.9453H16.8282V55.1055ZM18.6681 57.1445H17.3868V58.4258H18.6681C18.8868 58.4258 19.0548 58.3698 19.172 58.2578C19.2892 58.1458 19.3478 57.9883 19.3478 57.7852C19.3478 57.582 19.2892 57.4245 19.172 57.3125C19.0548 57.2005 18.8868 57.1445 18.6681 57.1445ZM18.5861 56.6641C18.9871 56.6641 19.1876 56.4909 19.1876 56.1445C19.1876 55.7982 18.9871 55.625 18.5861 55.625H17.3868V56.6641H18.5861ZM24.3829 57.2344L21.2618 57.2266C21.2827 57.5729 21.4246 57.8724 21.6876 58.125C21.9532 58.3776 22.2644 58.5039 22.6212 58.5039C22.8608 58.5039 23.0835 58.4505 23.2892 58.3438C23.4949 58.237 23.6407 58.1302 23.7267 58.0234L23.8634 57.8672L24.2228 58.2266C24.2072 58.2474 24.1837 58.2773 24.1525 58.3164C24.1238 58.3529 24.0587 58.4167 23.9572 58.5078C23.8582 58.5964 23.7501 58.6758 23.6329 58.7461C23.5184 58.8138 23.3686 58.8776 23.1837 58.9375C23.0014 58.9948 22.8139 59.0234 22.6212 59.0234C22.0978 59.0234 21.6473 58.8294 21.2697 58.4414C20.892 58.0508 20.7032 57.5781 20.7032 57.0234C20.7032 56.4688 20.8894 55.9974 21.2618 55.6094C21.6368 55.2188 22.0769 55.0234 22.5822 55.0234C23.1056 55.0234 23.5431 55.2057 23.8947 55.5703C24.2462 55.9323 24.422 56.3906 24.422 56.9453L24.3829 57.2344ZM23.4415 55.8867C23.2045 55.6602 22.9181 55.5469 22.5822 55.5469C22.2462 55.5469 21.9532 55.6654 21.7032 55.9023C21.4532 56.1393 21.3061 56.4206 21.2618 56.7461H23.8634C23.8217 56.3997 23.6811 56.1133 23.4415 55.8867ZM25.7072 58.4414C25.3295 58.0508 25.1407 57.5781 25.1407 57.0234C25.1407 56.4688 25.3295 55.9974 25.7072 55.6094C26.0874 55.2188 26.5379 55.0234 27.0587 55.0234C27.3582 55.0234 27.6368 55.0885 27.8947 55.2188C28.1551 55.3464 28.3413 55.474 28.4532 55.6016L28.6212 55.7852L28.2189 56.1836C28.2085 56.168 28.1928 56.1458 28.172 56.1172C28.1512 56.0885 28.1043 56.0365 28.0314 55.9609C27.9611 55.8854 27.8842 55.8203 27.8009 55.7656C27.7176 55.7083 27.6095 55.6576 27.4767 55.6133C27.3439 55.569 27.2045 55.5469 27.0587 55.5469C26.6915 55.5469 26.3725 55.6901 26.1017 55.9766C25.8335 56.2604 25.6993 56.6107 25.6993 57.0273C25.6993 57.4414 25.8335 57.7917 26.1017 58.0781C26.3725 58.362 26.6915 58.5039 27.0587 58.5039C27.2827 58.5039 27.4949 58.4505 27.6954 58.3438C27.896 58.237 28.0418 58.1302 28.1329 58.0234L28.2618 57.8672L28.6603 58.2266C28.6447 58.2474 28.6199 58.2773 28.5861 58.3164C28.5548 58.3529 28.4871 58.4167 28.3829 58.5078C28.2788 58.5964 28.1694 58.6758 28.0548 58.7461C27.9402 58.8138 27.7918 58.8776 27.6095 58.9375C27.4298 58.9948 27.2462 59.0234 27.0587 59.0234C26.5353 59.0234 26.0848 58.8294 25.7072 58.4414ZM30.0978 58.4258H31.1056C31.3556 58.4258 31.5561 58.3555 31.7072 58.2148C31.8608 58.0716 31.9376 57.888 31.9376 57.6641C31.9376 57.4401 31.8608 57.2578 31.7072 57.1172C31.5561 56.9766 31.353 56.9062 31.0978 56.9062H30.0978V58.4258ZM32.1212 56.7383C32.3712 56.9727 32.4962 57.2826 32.4962 57.668C32.4962 58.0508 32.3725 58.3594 32.1251 58.5938C31.8777 58.8281 31.5379 58.9453 31.1056 58.9453H29.5392V55.1055H30.0978V56.3867H31.0978C31.5301 56.3867 31.8712 56.5039 32.1212 56.7383ZM35.5822 57.8672V58.9453H35.0236V55.1055H35.5822V57.1445L37.5001 55.1055H38.1837L36.7032 56.6641L38.3439 58.9453H37.7032L36.3439 57.0664L35.5822 57.8672ZM39.9025 56.7461L41.3829 56.5039C41.3829 56.2201 41.2931 55.9896 41.1134 55.8125C40.9337 55.6354 40.7032 55.5469 40.422 55.5469C40.2189 55.5469 40.0275 55.5938 39.8478 55.6875C39.6707 55.7786 39.5418 55.8724 39.4611 55.9688L39.34 56.1055L38.9806 55.7461C38.9962 55.7253 39.017 55.6992 39.0431 55.668C39.0717 55.6341 39.1316 55.5768 39.2228 55.4961C39.3165 55.4128 39.4142 55.3385 39.5157 55.2734C39.6173 55.2083 39.7501 55.151 39.9142 55.1016C40.0809 55.0495 40.2501 55.0234 40.422 55.0234C40.8595 55.0234 41.2215 55.1654 41.5079 55.4492C41.797 55.7331 41.9415 56.0846 41.9415 56.5039V58.9453H41.3829V58.4258C41.3725 58.4414 41.3556 58.4635 41.3322 58.4922C41.3113 58.5182 41.2618 58.5664 41.1837 58.6367C41.1082 58.7044 41.0262 58.7656 40.9376 58.8203C40.8491 58.8724 40.7319 58.9193 40.5861 58.9609C40.4428 59.0026 40.2944 59.0234 40.1407 59.0234C39.7579 59.0234 39.435 58.9102 39.172 58.6836C38.9116 58.457 38.7814 58.1979 38.7814 57.9062C38.7814 57.5859 38.8777 57.3281 39.0704 57.1328C39.2631 56.9349 39.5405 56.806 39.9025 56.7461ZM40.1407 58.5039C40.5027 58.5039 40.7996 58.3854 41.0314 58.1484C41.2657 57.9115 41.3829 57.6042 41.3829 57.2266V56.9844L40.0626 57.2266C39.5835 57.3177 39.3426 57.5443 39.34 57.9062C39.34 58.0781 39.4103 58.2214 39.5509 58.3359C39.6941 58.4479 39.8907 58.5039 40.1407 58.5039ZM42.7384 55.625V55.1055H46.0157V55.625H44.6564V58.9453H44.0978V55.625H42.7384ZM47.6603 56.7461L49.1407 56.5039C49.1407 56.2201 49.0509 55.9896 48.8712 55.8125C48.6915 55.6354 48.4611 55.5469 48.1798 55.5469C47.9767 55.5469 47.7853 55.5938 47.6056 55.6875C47.4285 55.7786 47.2996 55.8724 47.2189 55.9688L47.0978 56.1055L46.7384 55.7461C46.754 55.7253 46.7749 55.6992 46.8009 55.668C46.8295 55.6341 46.8894 55.5768 46.9806 55.4961C47.0743 55.4128 47.172 55.3385 47.2736 55.2734C47.3751 55.2083 47.5079 55.151 47.672 55.1016C47.8387 55.0495 48.0079 55.0234 48.1798 55.0234C48.6173 55.0234 48.9793 55.1654 49.2657 55.4492C49.5548 55.7331 49.6993 56.0846 49.6993 56.5039V58.9453H49.1407V58.4258C49.1303 58.4414 49.1134 58.4635 49.09 58.4922C49.0691 58.5182 49.0197 58.5664 48.9415 58.6367C48.866 58.7044 48.784 58.7656 48.6954 58.8203C48.6069 58.8724 48.4897 58.9193 48.3439 58.9609C48.2006 59.0026 48.0522 59.0234 47.8986 59.0234C47.5157 59.0234 47.1928 58.9102 46.9298 58.6836C46.6694 58.457 46.5392 58.1979 46.5392 57.9062C46.5392 57.5859 46.6355 57.3281 46.8282 57.1328C47.021 56.9349 47.2983 56.806 47.6603 56.7461ZM47.8986 58.5039C48.2605 58.5039 48.5574 58.3854 48.7892 58.1484C49.0236 57.9115 49.1407 57.6042 49.1407 57.2266V56.9844L47.8204 57.2266C47.3413 57.3177 47.1004 57.5443 47.0978 57.9062C47.0978 58.0781 47.1681 58.2214 47.3087 58.3359C47.4519 58.4479 47.6486 58.5039 47.8986 58.5039ZM51.3751 55.1055H54.1759V58.9453H53.6134V55.625H51.9337V56.2266C51.9337 56.7917 51.9051 57.263 51.8478 57.6406C51.7931 58.0156 51.7098 58.3021 51.5978 58.5C51.4858 58.6953 51.3621 58.832 51.2267 58.9102C51.0913 58.9857 50.9272 59.0234 50.7345 59.0234C50.6694 59.0234 50.603 59.0169 50.5353 59.0039C50.4702 58.9909 50.422 58.9766 50.3907 58.9609L50.3361 58.9453V58.3867C50.4428 58.4388 50.5496 58.4648 50.6564 58.4648C50.8204 58.4648 50.9493 58.418 51.0431 58.3242C51.1368 58.2305 51.215 58.0143 51.2775 57.6758C51.3426 57.3372 51.3751 56.8542 51.3751 56.2266V55.1055ZM58.1173 58.0781C58.3934 57.7917 58.5314 57.4414 58.5314 57.0273C58.5314 56.6107 58.3934 56.2604 58.1173 55.9766C57.8439 55.6901 57.5144 55.5469 57.129 55.5469C56.7462 55.5469 56.4168 55.6901 56.1407 55.9766C55.8673 56.2604 55.7306 56.6094 55.7306 57.0234C55.7306 57.4349 55.8673 57.7852 56.1407 58.0742C56.4168 58.3607 56.7462 58.5039 57.129 58.5039C57.5144 58.5039 57.8439 58.362 58.1173 58.0781ZM55.7423 58.4453C55.3621 58.0599 55.172 57.5872 55.172 57.0273C55.172 56.4648 55.3621 55.9909 55.7423 55.6055C56.1251 55.2174 56.5887 55.0234 57.1329 55.0234C57.6772 55.0234 58.1394 55.2174 58.5197 55.6055C58.8999 55.9909 59.09 56.4648 59.09 57.0273C59.09 57.5872 58.8999 58.0599 58.5197 58.4453C58.1394 58.8307 57.6772 59.0234 57.1329 59.0234C56.5887 59.0234 56.1251 58.8307 55.7423 58.4453ZM62.6525 55.1055V55.625H60.6525V58.9453H60.0939V55.1055H62.6525Z" fill="#212225"/>
<g clip-path="url(#clip0_1_396)">
<path d="M46.2109 22.8912C47.0288 22.8781 47.826 23.148 48.4678 23.6552C49.0121 24.0811 49.4182 24.6583 49.6352 25.3145C49.8522 25.9706 49.8703 26.6762 49.6873 27.3426C49.3045 28.6956 48.1092 29.7268 46.7265 29.8909C46.5392 29.9129 46.3509 29.9244 46.1624 29.9253C45.1015 29.9253 44.0406 29.9253 42.9797 29.9253H42.7454V29.7042C42.7454 28.8323 42.7454 27.9597 42.7454 27.0879C42.7454 25.9856 41.9962 25.2395 40.8931 25.238C40.1642 25.238 39.4353 25.238 38.7057 25.238C37.6448 25.238 36.8894 25.9989 36.887 27.0621C36.887 28.0058 36.887 28.9495 36.887 29.9089C36.8366 29.9169 36.7857 29.9221 36.7347 29.9245C35.98 29.9245 35.2246 29.9315 34.4691 29.9245C33.8366 29.915 33.2123 29.7786 32.6335 29.5233C32.0546 29.268 31.533 28.8991 31.0994 28.4384C30.6658 27.9777 30.3291 27.4346 30.1094 26.8414C29.8896 26.2482 29.7913 25.6168 29.8201 24.9848C29.9326 22.7365 31.7591 20.8147 34.0027 20.5858C34.1504 20.5617 34.3001 20.5523 34.4496 20.5577C34.6473 20.578 34.7183 20.5045 34.7832 20.317C35.3824 18.5726 36.5706 17.4429 38.3893 17.0859C40.4205 16.6859 42.418 17.7109 43.368 19.5663C43.5118 19.8475 43.6024 20.1577 43.7266 20.4491C43.7424 20.4872 43.7656 20.5218 43.7948 20.5509C43.824 20.58 43.8587 20.603 43.8969 20.6186C45.0929 20.9053 45.8617 21.6342 46.1843 22.8224C46.192 22.8458 46.2009 22.8687 46.2109 22.8912Z" fill="#8C7C53" fill-opacity="0.5"/>
<path d="M41.5733 32.2698C41.9639 32.2698 42.3201 32.2698 42.6779 32.2698C42.9428 32.2698 43.1506 32.3612 43.2693 32.6033C43.3881 32.8455 43.3224 33.0807 43.1498 33.2885C42.2055 34.4343 41.2616 35.5785 40.3179 36.7212C40.0093 37.0946 39.621 37.0946 39.3148 36.7212C38.37 35.5754 37.4258 34.4311 36.4821 33.2885C36.3094 33.0807 36.236 32.8588 36.3586 32.6049C36.4813 32.351 36.6961 32.2627 36.9672 32.2674C37.3234 32.2729 37.6797 32.2674 38.0562 32.2674V32.0237C38.0562 30.3836 38.0562 28.7431 38.0562 27.102C38.0562 26.6333 38.2781 26.4091 38.7476 26.4091H40.8756C41.3483 26.4091 41.5717 26.6301 41.5717 27.0981C41.5717 28.7386 41.5717 30.3792 41.5717 32.0198L41.5733 32.2698Z" fill="#8C7C53" fill-opacity="0.5"/>
</g>
<defs>
<linearGradient id="paint0_linear_1_396" x1="17.174" y1="9.15942" x2="54.9566" y2="79" gradientUnits="userSpaceOnUse">
<stop stop-color="#CBB47A"/>
<stop offset="0.416632" stop-color="#E0C98E"/>
<stop offset="1" stop-color="#CBB47A"/>
</linearGradient>
<linearGradient id="paint1_linear_1_396" x1="69.2682" y1="65.8333" x2="11.4494" y2="8.01449" gradientUnits="userSpaceOnUse">
<stop stop-color="#C7B997"/>
<stop offset="1" stop-color="#E7D8B2" stop-opacity="0"/>
</linearGradient>
<clipPath id="clip0_1_396">
<rect width="20.0008" height="20" fill="white" transform="translate(29.8136 17)"/>
</clipPath>
</defs>
</svg>
