<svg width="32" height="32" viewBox="0 0 32 32" fill="none" xmlns="http://www.w3.org/2000/svg">
<path d="M14.1665 2.12497C13.8086 2.27081 13.1854 3.01327 13.1854 3.29169C13.1191 5.39975 12.8142 11.2864 12.7612 11.3394C12.7081 11.4057 8.59809 9.90755 8.47877 9.78823C8.45225 9.76171 8.31967 9.28441 8.17383 8.70105C8.01473 8.10443 7.77608 7.53433 7.60372 7.34871C6.86126 6.56648 5.50892 6.65928 4.88579 7.53433C4.58085 7.97185 4.01074 10.8621 4.09029 11.5648C4.24939 12.9569 5.28353 14.4021 6.50329 14.9192C6.79497 15.0385 10.9183 16.656 15.678 18.5254C23.3412 21.5218 24.4152 21.9062 25.0516 21.893C27.3983 21.8665 28.618 19.1751 27.0801 17.425C26.5497 16.8283 26.3376 16.7223 22.5325 15.2506C20.7824 14.5744 19.2842 13.9513 19.2047 13.8718C19.1251 13.7922 18.502 11.4322 17.8258 8.6215C17.1496 5.81076 16.5 3.27844 16.3674 2.9735C16.0227 2.178 15.0151 1.78026 14.1665 2.12497Z" fill="#4A86E8" fill-opacity="0.23"/>
<path d="M4.85927 26.2149C4.15659 26.5596 3.85165 27.1165 3.79862 28.1108C3.74558 29.1052 4.01075 29.6621 4.72669 30.0996C5.15095 30.3515 5.41612 30.3647 16.5 30.3647C27.5839 30.3647 27.849 30.3515 28.2733 30.0996C28.9893 29.6621 29.2544 29.1052 29.2014 28.1108C29.1484 27.1032 28.8302 26.5464 28.1142 26.2017C27.7032 26.016 26.5232 25.9895 16.4735 25.9895C6.45026 25.9895 5.25702 26.016 4.85927 26.2149Z" fill="#4A86E8"/>
</svg>
