<svg width="34" height="34" viewBox="0 0 34 34" fill="none" xmlns="http://www.w3.org/2000/svg">
<path d="M16.2207 0.365711C16.0109 0.425655 15.2915 0.890251 14.6471 1.36983C12.2642 3.18324 12.5489 3.07833 10.0911 3.03337C6.92883 2.97342 6.734 3.12329 5.72988 6.3155L5.10043 8.33872L3.39192 9.56765C2.44775 10.2271 1.53355 10.9614 1.3687 11.1862C0.814183 11.9206 0.87413 12.8198 1.62347 15.0079L2.29788 17.0011L1.62347 18.9794C0.87413 21.1825 0.814183 22.0817 1.3687 22.816C1.53355 23.0408 2.44775 23.7752 3.37694 24.4346L5.10043 25.6635L5.72988 27.6718C6.71901 30.879 6.92883 31.0288 10.121 30.9689L12.3091 30.9239L14.0926 32.2278C16.8651 34.251 17.1499 34.251 19.8625 32.2728L21.7059 30.9239L23.879 30.9689C27.0562 31.0288 27.236 30.909 28.2402 27.7617L28.9146 25.6635L30.6231 24.4496C31.5672 23.7752 32.4665 23.0408 32.6313 22.816C33.1858 22.0667 33.1259 21.1825 32.3765 18.9794L31.7021 17.0011L32.3765 15.0079C33.1259 12.8198 33.1858 11.9356 32.6313 11.1862C32.4665 10.9614 31.5672 10.2271 30.6231 9.55266L28.9146 8.33872L28.2402 6.24056C27.236 3.09332 27.0562 2.97342 23.879 3.03337L21.6909 3.07833L19.9374 1.77448C17.8393 0.245815 17.2997 0.0359993 16.2207 0.365711Z" fill="#D5E3F9"/>
<path d="M8.25176 18.6574C8.25176 18.3952 8.11884 18.184 7.853 18.0238C7.59081 17.8635 7.26853 17.7306 6.88616 17.625C6.50744 17.5158 6.12871 17.3883 5.74998 17.2426C5.3749 17.097 5.05444 16.8566 4.7886 16.5216C4.52277 16.1866 4.38985 15.7623 4.38985 15.2489C4.38985 14.6152 4.64294 14.0745 5.14912 13.6265C5.65894 13.1786 6.31989 12.9547 7.13197 12.9547C7.45243 12.9547 7.76196 12.9929 8.06057 13.0694C8.35919 13.1422 8.60317 13.2296 8.79253 13.3316C8.98554 13.4299 9.15305 13.5319 9.29507 13.6375C9.44074 13.7394 9.54452 13.8286 9.60643 13.9051C9.66198 13.9668 9.66088 14.0609 9.60388 14.1213L8.88004 14.8884C8.78366 14.9905 8.61786 14.9883 8.51395 14.8938C8.43748 14.8173 8.27361 14.7172 8.02234 14.5934C7.77107 14.4696 7.51251 14.4077 7.24668 14.4077C6.92622 14.4077 6.66767 14.4896 6.47102 14.6535C6.27801 14.8173 6.18151 15.0158 6.18151 15.2489C6.18151 15.5111 6.31261 15.7223 6.5748 15.8825C6.84064 16.0391 7.1611 16.172 7.53619 16.2813C7.91491 16.3905 8.29364 16.518 8.67236 16.6636C9.05473 16.8093 9.37883 17.0496 9.64467 17.3847C9.9105 17.7197 10.0434 18.1439 10.0434 18.6574C10.0434 19.3821 9.77941 19.9738 9.25138 20.4327C8.72699 20.8915 8.00231 21.1209 7.07734 21.1209C6.71319 21.1209 6.35995 21.0754 6.01764 20.9844C5.67897 20.897 5.39857 20.7914 5.17643 20.6676C4.95794 20.5437 4.76493 20.4181 4.59742 20.2907C4.42991 20.1632 4.30973 20.0558 4.2369 19.9684C4.16674 19.8921 4.16936 19.774 4.24283 19.701L4.89981 19.0475C5.02006 18.9279 5.2173 18.9339 5.33484 19.0562C5.42952 19.1472 5.63709 19.271 5.95755 19.4276C6.27801 19.5842 6.61304 19.6625 6.96263 19.6625C7.36685 19.6625 7.68185 19.5678 7.90763 19.3784C8.13705 19.1891 8.25176 18.9487 8.25176 18.6574Z" fill="#4A86E8"/>
<path d="M14.3635 17.6523C14.5721 17.6523 14.7169 17.4444 14.6446 17.2487L14.1236 15.8384C14.0273 15.5775 13.6584 15.5772 13.5615 15.8379L13.0375 17.2482C12.9648 17.444 13.1096 17.6523 13.3185 17.6523H14.3635ZM15.6021 19.7956C15.4513 19.3812 15.0573 19.1053 14.6163 19.1053H13.0648C12.6238 19.1053 12.2298 19.3812 12.079 19.7956L11.8562 20.4078C11.7374 20.7343 11.4271 20.9516 11.0797 20.9516C10.4971 20.9516 10.0974 20.3649 10.3106 19.8228L12.6859 13.7836C12.8437 13.3824 13.231 13.1185 13.6621 13.1185H14.019C14.4501 13.1185 14.8374 13.3824 14.9952 13.7836L17.3705 19.8228C17.5837 20.3649 17.184 20.9516 16.6014 20.9516C16.254 20.9516 15.9437 20.7343 15.8249 20.4078L15.6021 19.7956Z" fill="#4A86E8"/>
<path d="M23.466 20.1978C23.466 20.6141 23.1285 20.9516 22.7122 20.9516H19.2002C18.6208 20.9516 18.1511 20.4819 18.1511 19.9025V13.9597C18.1511 13.4952 18.5278 13.1185 18.9923 13.1185C19.4569 13.1185 19.8336 13.4952 19.8336 13.9597V18.3949C19.8336 18.9743 20.3032 19.444 20.8826 19.444H22.7122C23.1286 19.444 23.466 19.7815 23.466 20.1978Z" fill="#4A86E8"/>
<path d="M25.649 18.5755C25.649 19.0551 26.0379 19.444 26.5176 19.444H29.0903C29.5067 19.444 29.8441 19.7815 29.8441 20.1978C29.8441 20.6141 29.5067 20.9516 29.0903 20.9516H25.0157C24.4363 20.9516 23.9666 20.4819 23.9666 19.9025V14.1676C23.9666 13.5882 24.4363 13.1185 25.0157 13.1185H28.9729C29.3907 13.1185 29.7294 13.4573 29.7294 13.8751C29.7294 14.2929 29.3907 14.6316 28.9729 14.6316H26.4329C26 14.6316 25.649 14.9826 25.649 15.4155C25.649 15.8484 26 16.1993 26.4329 16.1993H28.0798C28.4961 16.1993 28.8336 16.5368 28.8336 16.9531C28.8336 17.3695 28.4961 17.7069 28.0798 17.7069H26.5176C26.0379 17.7069 25.649 18.0958 25.649 18.5755Z" fill="#4A86E8"/>
</svg>
