<svg width="24" height="24" viewBox="0 0 24 24" fill="none" xmlns="http://www.w3.org/2000/svg">
<g clip-path="url(#clip0_264_316)">
<path d="M11.4499 0.258091C11.3018 0.300406 10.7941 0.628355 10.3392 0.966881C8.6571 2.24694 8.8581 2.17288 7.12315 2.14115C4.89099 2.09883 4.75346 2.20462 4.04467 4.45794L3.60035 5.8861L2.39435 6.75358C1.72787 7.21905 1.08256 7.73742 0.966189 7.8961C0.574767 8.41447 0.617083 9.04921 1.14603 10.5937L1.62209 12.0007L1.14603 13.3972C0.617083 14.9523 0.574767 15.587 0.966189 16.1054C1.08256 16.2641 1.72787 16.7824 2.38377 17.2479L3.60035 18.1154L4.04467 19.533C4.74288 21.7969 4.89099 21.9027 7.14431 21.8603L8.68884 21.8286L9.94773 22.749C11.9048 24.1771 12.1058 24.1771 14.0206 22.7807L15.3218 21.8286L16.8558 21.8603C19.0985 21.9027 19.2255 21.818 19.9343 19.5964L20.4103 18.1154L21.6163 17.2585C22.2828 16.7824 22.9175 16.2641 23.0339 16.1054C23.4253 15.5764 23.383 14.9523 22.8541 13.3972L22.378 12.0007L22.8541 10.5937C23.383 9.04921 23.4253 8.42505 23.0339 7.8961C22.9175 7.73742 22.2828 7.21905 21.6163 6.743L20.4103 5.8861L19.9343 4.40505C19.2255 2.18346 19.0985 2.09883 16.8558 2.14115L15.3113 2.17288L14.0735 1.25251C12.5925 0.173458 12.2116 0.0253525 11.4499 0.258091Z" fill="#D5E3F9"/>
<path d="M5.8248 13.17C5.8248 12.9849 5.73097 12.8358 5.54333 12.7227C5.35825 12.6096 5.13075 12.5158 4.86085 12.4412C4.59351 12.3641 4.32618 12.2742 4.05884 12.1713C3.79408 12.0685 3.56787 11.8989 3.38022 11.6624C3.19257 11.4259 3.09875 11.1264 3.09875 10.764C3.09875 10.3167 3.2774 9.93497 3.6347 9.6188C3.99458 9.30262 4.46113 9.14453 5.03436 9.14453C5.26057 9.14453 5.47906 9.17152 5.68985 9.2255C5.90063 9.27691 6.07286 9.33861 6.20652 9.41058C6.34276 9.47999 6.46101 9.55196 6.56126 9.62651C6.66408 9.69848 6.73734 9.76146 6.78104 9.81544C6.82025 9.85901 6.81947 9.92538 6.77924 9.96802L6.26829 10.5095C6.20026 10.5816 6.08322 10.58 6.00988 10.5133C5.9559 10.4594 5.84022 10.3887 5.66286 10.3013C5.48549 10.2139 5.30298 10.1702 5.11533 10.1702C4.88912 10.1702 4.70662 10.228 4.56781 10.3437C4.43157 10.4594 4.36345 10.5995 4.36345 10.764C4.36345 10.949 4.45599 11.0981 4.64107 11.2112C4.82872 11.3218 5.05492 11.4156 5.31969 11.4927C5.58702 11.5698 5.85436 11.6598 6.1217 11.7626C6.3916 11.8654 6.62038 12.0351 6.80803 12.2716C6.99568 12.5081 7.0895 12.8075 7.0895 13.17C7.0895 13.6815 6.90314 14.0992 6.53041 14.4231C6.16025 14.747 5.64872 14.909 4.9958 14.909C4.73875 14.909 4.48941 14.8768 4.24778 14.8126C4.00872 14.7509 3.81078 14.6763 3.65398 14.5889C3.49975 14.5015 3.36351 14.4128 3.24527 14.3229C3.12702 14.2329 3.04219 14.1571 2.99078 14.0954C2.94126 14.0415 2.9431 13.9582 2.99497 13.9066L3.45872 13.4454C3.5436 13.361 3.68283 13.3652 3.7658 13.4515C3.83263 13.5157 3.97915 13.6031 4.20536 13.7137C4.43157 13.8242 4.66806 13.8795 4.91483 13.8795C5.20016 13.8795 5.42251 13.8126 5.58188 13.679C5.74383 13.5453 5.8248 13.3756 5.8248 13.17Z" fill="#4A86E8"/>
<path d="M10.0124 12.4605C10.2211 12.4605 10.3659 12.2526 10.2936 12.0569L10.0521 11.4033C9.95573 11.1424 9.58685 11.1421 9.48998 11.4028L9.24714 12.0564C9.17439 12.2522 9.31922 12.4605 9.52811 12.4605H10.0124ZM11.0731 14.1378C10.9307 13.7466 10.5588 13.4862 10.1425 13.4862H9.39713C8.9808 13.4862 8.60893 13.7466 8.46656 14.1378L8.36911 14.4056C8.28525 14.636 8.0662 14.7894 7.82096 14.7894C7.40973 14.7894 7.1276 14.3753 7.27812 13.9926L8.90866 9.84688C9.04787 9.49293 9.38948 9.26021 9.76983 9.26021C10.1502 9.26021 10.4918 9.49293 10.631 9.84688L12.2615 13.9926C12.412 14.3753 12.1299 14.7894 11.7187 14.7894C11.4734 14.7894 11.2544 14.636 11.1705 14.4056L11.0731 14.1378Z" fill="#4A86E8"/>
<path d="M16.5643 14.2573C16.5643 14.5512 16.3261 14.7894 16.0322 14.7894H13.8617C13.2823 14.7894 12.8126 14.3197 12.8126 13.7403V9.854C12.8126 9.52606 13.0784 9.26021 13.4064 9.26021C13.7343 9.26021 14.0002 9.52606 14.0002 9.854V12.6761C14.0002 13.2555 14.4699 13.7252 15.0493 13.7252H16.0322C16.3261 13.7252 16.5643 13.9635 16.5643 14.2573Z" fill="#4A86E8"/>
<path d="M18.1052 13.1122C18.1052 13.4507 18.3797 13.7252 18.7183 13.7252H20.5344C20.8283 13.7252 21.0665 13.9635 21.0665 14.2573C21.0665 14.5512 20.8283 14.7894 20.5344 14.7894H17.9667C17.3873 14.7894 16.9176 14.3197 16.9176 13.7403V10.3093C16.9176 9.7299 17.3873 9.26021 17.9667 9.26021H20.4515C20.7464 9.26021 20.9855 9.4993 20.9855 9.79423C20.9855 10.0892 20.7464 10.3283 20.4515 10.3283H18.6585C18.353 10.3283 18.1052 10.576 18.1052 10.8816C18.1052 11.1872 18.353 11.4349 18.6585 11.4349H19.8211C20.1149 11.4349 20.3532 11.6731 20.3532 11.967C20.3532 12.2609 20.1149 12.4991 19.8211 12.4991H18.7183C18.3797 12.4991 18.1052 12.7736 18.1052 13.1122Z" fill="#4A86E8"/>
</g>
<defs>
<clipPath id="clip0_264_316">
<rect width="24" height="24" fill="white"/>
</clipPath>
</defs>
</svg>
