<svg width="18" height="15" viewBox="0 0 18 15" fill="none" xmlns="http://www.w3.org/2000/svg">
<g clip-path="url(#clip0_40_13)">
<path d="M5.30614 12.946C5.02978 13.1802 4.78366 13.4256 4.50238 13.6197C4.02279 13.9502 3.47499 14.0888 2.89203 14.0881C2.14804 14.0881 1.40405 14.0881 0.660053 14.0881C0.0904547 14.0881 -0.168326 13.6338 0.115067 13.1373C1.64947 10.4487 3.1848 7.76083 4.72108 5.07364C4.84836 4.85002 5.02275 4.69672 5.29278 4.70656C5.40237 4.70397 5.51007 4.73537 5.6011 4.79643C5.69213 4.8575 5.76203 4.94524 5.8012 5.04762C5.8437 5.16232 5.86444 5.28395 5.86238 5.40626C5.8673 6.46669 5.86238 7.52713 5.86238 8.58686V8.77462C6.11835 8.64804 6.35462 8.51724 6.60708 8.40965C6.95868 8.25917 7.32997 8.21838 7.70689 8.21768C10.1259 8.21768 12.5452 8.21768 14.9647 8.21768C16.3149 8.21768 17.3929 8.97292 17.8352 10.212C18.435 11.8898 17.2902 13.7983 15.5315 14.0452C15.3229 14.0734 15.1126 14.0873 14.9021 14.0866C12.5879 14.0866 10.2736 14.0712 7.96005 14.0958C6.88063 14.1035 5.97419 13.7899 5.30614 12.946ZM13.3009 11.1374C13.2826 12.0755 14.0744 12.8954 15.0203 12.9151C15.4878 12.9204 15.9386 12.7416 16.2753 12.4172C16.612 12.0929 16.8076 11.6491 16.8198 11.1817C16.8465 10.245 16.0512 9.41665 15.1089 9.39907C14.8762 9.39393 14.6447 9.43477 14.4278 9.51923C14.2109 9.6037 14.0128 9.73013 13.8449 9.89129C13.6769 10.0524 13.5424 10.2452 13.4491 10.4584C13.3557 10.6716 13.3054 10.9012 13.3009 11.1339V11.1374ZM9.38264 11.1522C9.38152 10.8044 9.27727 10.4647 9.08308 10.1762C8.88889 9.88767 8.61347 9.66323 8.29169 9.53126C7.96991 9.39929 7.61622 9.36573 7.27536 9.43483C6.9345 9.50393 6.62179 9.67257 6.3768 9.91943C6.13181 10.1663 5.96555 10.4803 5.89905 10.8216C5.83254 11.163 5.86879 11.5165 6.0032 11.8372C6.13761 12.158 6.36414 12.4317 6.65414 12.6237C6.94414 12.8157 7.28456 12.9173 7.63235 12.9158C8.0981 12.9114 8.54326 12.7232 8.87103 12.3923C9.19879 12.0614 9.38266 11.6144 9.38264 11.1486V11.1522Z" fill="white" fill-opacity="0.7"/>
<path d="M16.8127 7.45189C15.9998 7.03911 15.1518 7.03911 14.2988 7.03911C12.1252 7.04614 9.95226 7.03911 7.77864 7.03911H7.04449C7.03894 6.60292 7.16116 6.17465 7.3961 5.80709C7.57134 5.51529 7.81209 5.26827 8.0993 5.0856C8.13971 5.0635 8.17253 5.02975 8.19348 4.98873C8.21442 4.94772 8.22253 4.90134 8.21674 4.85565C8.21041 4.60953 8.21111 4.36341 8.21674 4.11729C8.22448 3.76568 8.46779 3.52097 8.79759 3.52026C9.12739 3.51956 9.37844 3.77131 9.38406 4.13065C9.38406 4.30575 9.38406 4.48225 9.38406 4.67141H9.90866C10.0106 4.26777 10.1161 3.85569 10.2188 3.44291C10.4583 2.48373 10.6972 1.52456 10.9353 0.565385C11.0394 0.14768 11.2293 -0.00280762 11.654 -0.00280762C12.767 -0.00280762 13.8801 -0.00280762 14.9935 -0.00280762C15.8775 -0.00280762 16.5237 0.489439 16.7628 1.33962C16.8041 1.49822 16.8237 1.66167 16.8212 1.82553C16.8254 3.64121 16.8254 5.45737 16.8212 7.27399C16.8233 7.3204 16.8184 7.36892 16.8127 7.45189ZM11.1217 4.67634C11.1561 4.68286 11.1908 4.68755 11.2258 4.6904C12.116 4.6904 13.0063 4.6904 13.898 4.6904C13.9747 4.69178 14.051 4.67752 14.1221 4.64849C14.1932 4.61945 14.2577 4.57626 14.3115 4.52152C14.3654 4.46679 14.4076 4.40167 14.4355 4.33012C14.4634 4.25857 14.4765 4.18209 14.4739 4.10533C14.4823 3.32665 14.4823 2.54773 14.4739 1.76857C14.4739 1.41697 14.2193 1.1828 13.8649 1.17577C13.6251 1.17085 13.3853 1.17577 13.1448 1.17577H11.9972C11.7039 2.34661 11.4135 3.50761 11.1217 4.67634Z" fill="white" fill-opacity="0.7"/>
<path d="M15.6433 11.1522C15.6433 11.3068 15.5819 11.4551 15.4726 11.5644C15.3633 11.6737 15.215 11.7351 15.0604 11.7351C14.9058 11.7351 14.7575 11.6737 14.6482 11.5644C14.5388 11.4551 14.4774 11.3068 14.4774 11.1522C14.4774 10.9976 14.5388 10.8493 14.6482 10.74C14.7575 10.6306 14.9058 10.5692 15.0604 10.5692C15.215 10.5692 15.3633 10.6306 15.4726 10.74C15.5819 10.8493 15.6433 10.9976 15.6433 11.1522Z" fill="white" fill-opacity="0.7"/>
<path d="M8.21322 11.1472C8.21402 11.2629 8.18062 11.3763 8.11721 11.4731C8.05379 11.5699 7.9632 11.6458 7.85681 11.6912C7.75041 11.7367 7.63295 11.7497 7.51918 11.7287C7.4054 11.7076 7.30039 11.6534 7.21732 11.5729C7.13425 11.4923 7.07683 11.389 7.05226 11.2759C7.0277 11.1629 7.03709 11.0451 7.07925 10.9373C7.12142 10.8296 7.19447 10.7367 7.28925 10.6703C7.38403 10.6039 7.49631 10.5671 7.61198 10.5643C7.76864 10.5631 7.91948 10.6236 8.03196 10.7327C8.14443 10.8417 8.20954 10.9906 8.21322 11.1472Z" fill="white" fill-opacity="0.7"/>
</g>
<defs>
<clipPath id="clip0_40_13">
<rect width="18" height="14.0923" fill="white" transform="translate(-0.000244141)"/>
</clipPath>
</defs>
</svg>
