<svg width="110" height="110" viewBox="0 0 110 110" fill="none" xmlns="http://www.w3.org/2000/svg">
<rect width="110" height="110" rx="10" fill="white"/>
<path d="M61.2257 20.8493L44.4455 59.119L34.4857 30.5479L24 34.3489L43.4016 88.6083L74.8564 16L61.2257 20.8493ZM28.9805 36.5767L32.2567 34.8725L44.052 69.2111L63.7104 23.9943L68.4286 22.4224L44.0531 78.3839L28.9805 36.5767Z" fill="#CBB47A"/>
<path d="M37.6356 29.6302L45.0435 50.4032L56.8664 22.4219L37.6356 29.6302ZM42.2226 31.9893L50.0868 28.8431L45.2364 40.1148L42.2226 31.9893Z" fill="#CBB47A"/>
<path d="M44.838 93.8499L49.6873 92.1467L80.225 21.5039L75.3757 23.6006L44.838 93.8499Z" fill="#CBB47A"/>
<path d="M80.5299 28.8433L85.4674 27.4014L60.5198 84.4796L55.7157 86.2478L80.5299 28.8433Z" fill="#CBB47A"/>
</svg>
