<svg width="32" height="32" viewBox="0 0 32 32" fill="none" xmlns="http://www.w3.org/2000/svg">
<g clip-path="url(#clip0_205_1188)">
<path d="M3.47525 0.276102C2.82525 1.2886 1.60025 5.5261 1.31275 7.7261C1.23775 8.2761 1.17525 8.4136 0.87525 8.5636C-0.29975 9.1761 -0.29975 11.2261 0.86275 11.9136L1.25025 12.1386V21.9261C1.25025 29.3636 1.28775 31.7386 1.40025 31.8511C1.62525 32.0761 13.1878 32.0636 13.3378 31.8386C13.3878 31.7636 13.4628 30.9636 13.5003 30.0636C13.5503 28.8136 13.6253 28.3261 13.8003 27.9511C14.0878 27.3886 15.1003 26.3386 15.6253 26.0636C15.9628 25.8886 16.0378 25.8886 16.3752 26.0636C16.9003 26.3386 17.9128 27.3886 18.2003 27.9511C18.3752 28.3261 18.4503 28.8136 18.5002 30.0636C18.5378 30.9636 18.6128 31.7636 18.6628 31.8386C18.8127 32.0636 30.3752 32.0761 30.6003 31.8511C30.7128 31.7386 30.7502 29.3636 30.7502 21.9261V12.1511L31.1628 11.9011C31.7378 11.5386 32.0003 11.0136 32.0003 10.2511C32.0003 9.4886 31.7378 8.9636 31.1628 8.6136C30.8378 8.4136 30.7502 8.2636 30.6877 7.7761C30.3378 5.2886 29.1378 1.1636 28.5128 0.288601C28.2128 -0.136398 27.4628 -0.111401 27.1503 0.338602C26.5128 1.2636 25.0002 6.5011 25.0002 7.8011C25.0002 8.0136 24.8003 8.3136 24.3878 8.7136C23.7253 9.3761 23.5378 9.9011 23.6753 10.6886C23.7753 11.1761 24.2628 11.8261 24.6252 11.9386C24.8628 12.0136 24.8752 12.1511 24.8752 15.2636C24.8752 18.3886 24.8628 18.5011 24.6378 18.5011C24.4377 18.5011 24.3752 18.3886 24.3127 17.9136C24.1753 16.8761 23.6503 15.3386 23.1628 14.5386C22.2628 13.0511 21.0002 11.9636 18.6252 10.6136C17.8752 10.1886 17.0378 9.6136 16.7628 9.3511C16.4753 9.0886 16.1378 8.8761 16.0128 8.8761C15.8753 8.8761 15.5378 9.0886 15.2628 9.3511C14.9878 9.6136 14.1378 10.1761 13.3878 10.6011C11.0003 11.9636 9.73775 13.0511 8.83775 14.5386C8.35025 15.3386 7.82525 16.8761 7.68775 17.9136C7.62525 18.3886 7.56275 18.5011 7.36275 18.5011C7.13775 18.5011 7.12525 18.3886 7.12525 15.2636C7.12525 12.1511 7.13775 12.0136 7.37525 11.9386C7.73775 11.8261 8.22525 11.1761 8.32525 10.6886C8.47525 9.8886 8.28775 9.3636 7.61275 8.7386C7.17525 8.3136 7.00025 8.0636 7.00025 7.8136C7.00025 6.4761 5.51275 1.2886 4.85025 0.338602C4.52525 -0.111401 3.75025 -0.148899 3.47525 0.276102ZM4.75025 4.1886C5.07525 5.3261 5.62525 7.7761 5.62525 8.1136C5.62525 8.2011 5.13775 8.2511 4.17525 8.2511H2.71275L2.80025 7.5636C2.88775 6.8386 3.75025 3.3261 4.00025 2.6886L4.15025 2.3136L4.27525 2.6261C4.33775 2.8011 4.55025 3.5011 4.75025 4.1886ZM28.3003 3.6886C28.7378 5.2011 29.2502 7.4886 29.2502 7.9011V8.2511H27.8127H26.3752L26.4503 7.7136C26.5878 6.8011 26.9753 5.1136 27.3253 3.9386C27.5002 3.3136 27.6877 2.7136 27.7128 2.5886C27.8253 2.2261 27.9628 2.4886 28.3003 3.6886ZM2.22525 9.8261C2.68775 10.1511 2.51275 10.7511 1.93775 10.7511C1.41275 10.7511 1.20025 10.2011 1.57525 9.8261C1.81275 9.5761 1.87525 9.5761 2.22525 9.8261ZM4.45025 10.2136C4.46275 10.9636 4.76275 11.5761 5.32525 11.9011L5.75025 12.1511V21.3886V30.6261H4.18775H2.62525V21.4011V12.1761L3.01275 11.8886C3.57525 11.4636 3.87525 10.9011 3.87525 10.2136C3.87525 9.6886 3.90025 9.6261 4.16275 9.6261C4.42525 9.6261 4.45025 9.6886 4.45025 10.2136ZM6.75025 9.8761C7.06275 10.1886 7.06275 10.3136 6.73775 10.6386C6.51275 10.8636 6.45025 10.8761 6.21275 10.7136C5.85025 10.4761 5.78775 10.0011 6.07525 9.7886C6.37525 9.5761 6.45025 9.5761 6.75025 9.8761ZM25.8878 9.7511C26.1503 9.9011 26.2003 10.3761 25.9753 10.6011C25.7128 10.8636 25.2628 10.7761 25.1003 10.4261C24.9628 10.1386 24.9753 10.0636 25.2378 9.8636C25.5753 9.5886 25.5753 9.5886 25.8878 9.7511ZM28.1252 10.2136C28.1252 10.9011 28.4253 11.4636 28.9878 11.8886L29.3752 12.1761V21.4011V30.6261H27.8127H26.2502V21.3886V12.1511L26.6753 11.9011C27.2378 11.5761 27.5378 10.9636 27.5503 10.2136C27.5503 9.6886 27.5753 9.6261 27.8378 9.6261C28.1003 9.6261 28.1252 9.6886 28.1252 10.2136ZM30.4253 9.8261C30.7003 10.1011 30.6753 10.4511 30.3503 10.6761C30.1128 10.8386 30.0378 10.8511 29.8127 10.7011C29.4503 10.4636 29.4253 10.0636 29.7753 9.8261C30.1252 9.5761 30.1877 9.5761 30.4253 9.8261ZM16.5878 11.0511C16.9253 11.2761 17.5253 11.6511 17.9377 11.8886C20.9753 13.5636 22.4128 15.2386 22.8003 17.5386L22.9503 18.4386L19.4753 18.4761C17.5627 18.4886 14.4378 18.4886 12.5253 18.4761L9.05025 18.4386L9.20025 17.5386C9.60025 15.1511 10.9128 13.6761 14.4378 11.6511C14.9253 11.3761 15.4628 11.0261 15.6253 10.8886C15.8003 10.7511 15.9503 10.6386 15.9628 10.6261C15.9878 10.6261 16.2628 10.8136 16.5878 11.0511ZM24.8752 25.2511V30.6261H22.3752H19.8752V29.4011C19.8752 28.3136 19.8378 28.1011 19.5002 27.4011C19.2878 26.9386 18.8503 26.3386 18.4503 25.9386C17.7128 25.2011 16.3378 24.2511 16.0002 24.2511C15.6628 24.2511 14.2878 25.2011 13.5503 25.9386C13.1503 26.3386 12.7128 26.9386 12.5003 27.4011C12.1628 28.1011 12.1253 28.3136 12.1253 29.4011V30.6261H9.62525H7.12525V25.2511V19.8761H16.0002H24.8752V25.2511Z" fill="#4A86E8"/>
</g>
<defs>
<clipPath id="clip0_205_1188">
<rect width="32" height="32" fill="white"/>
</clipPath>
</defs>
</svg>
