<svg width="32" height="29" viewBox="0 0 32 29" fill="none" xmlns="http://www.w3.org/2000/svg">
<path d="M4.41121 9.48042L12.8598 4.74023L20.4592 0.46895C21.0062 0.161526 21.623 4.57764e-05 22.2505 4.57764e-05C23.9252 4.57764e-05 24.5832 0.523411 25.9738 3.02061C26.5122 3.99257 27.0505 4.78509 27.1701 4.78509L4.41121 9.48042Z" fill="#4A86E8" fill-opacity="0.23"/>
<path fill-rule="evenodd" clip-rule="evenodd" d="M30.3402 9.86921L4.41121 9.48042L27.1701 4.78509C27.5888 4.78509 28.5458 5.38322 28.9944 5.93649C29.3533 6.37014 29.5327 6.8636 29.8467 8.17949C30.0559 9.10585 30.2802 9.868 30.3402 9.86921Z" fill="#4A86E8"/>
<path d="M3.18505 9.57014L4.41121 9.48042L30.3402 9.86921C30.5794 9.86921 31.4617 10.8711 31.7159 11.4393C31.9701 11.9926 32 12.5757 32 19.1402C32 25.5209 32 26.6365 31.4701 27.3685C31.348 27.5371 31.1979 27.6854 31.0131 27.8729C30.8988 27.9853 30.8104 28.0826 30.7109 28.1668C30.0424 28.733 28.8752 28.7103 16.015 28.7103C6.78878 28.7103 2.2729 28.6655 1.98879 28.5458C1.39065 28.3215 0.613084 27.544 0.284112 26.8412C0.0299065 26.2879 0 25.7346 0 19.1253V12.8718C0 12.313 0.127875 11.7616 0.373832 11.2599C0.942056 10.1234 1.67477 9.68977 3.18505 9.57014Z" fill="#4A86E8" fill-opacity="0.23"/>
<ellipse cx="16" cy="19.1402" rx="5.53564" ry="6.32646" fill="#4A86E8"/>
<circle cx="5.20434" cy="19.1401" r="1.62127" fill="#4A86E8"/>
<circle cx="26.7958" cy="19.1401" r="1.62127" fill="#4A86E8"/>
</svg>
