<svg width="18" height="18" viewBox="0 0 18 18" fill="none" xmlns="http://www.w3.org/2000/svg">
<path d="M2.27818 0.16875C1.30318 0.515625 0.412556 1.45312 0.131306 2.41875C0.0281808 2.775 -0.0093192 3.17812 0.0188058 3.74062C0.0469308 4.43437 0.103181 4.63125 0.365681 5.1375C0.750056 5.84062 1.33131 6.40312 2.04381 6.73125C2.51256 6.95625 2.69068 6.98438 3.51568 6.98438C4.35943 6.975 4.50943 6.94687 5.01568 6.70312C5.72818 6.35625 6.35631 5.72812 6.70318 5.01562C6.94693 4.50937 6.97506 4.35938 6.98443 3.51562C6.98443 2.69062 6.95631 2.5125 6.73131 2.04375C6.40318 1.33125 5.84068 0.75 5.13756 0.365625C4.60318 0.0843749 4.46256 0.0468745 3.65631 0.0281248C2.97193 -4.76837e-07 2.65318 0.0374999 2.27818 0.16875Z" fill="#D5E3F9"/>
<path d="M15.7969 0.103125C15.5063 0.262499 0.290625 15.4875 0.13125 15.7687C0.05625 15.9094 0 16.2469 0 16.5187C0 17.4281 0.571875 18 1.48125 18C1.75313 18 2.07188 17.9531 2.18438 17.8969C2.475 17.7469 17.7 2.54063 17.8688 2.23125C17.9438 2.09063 18 1.75313 18 1.48125C18 0.5625 17.4281 0 16.5 0C16.2188 0 15.9 0.046875 15.7969 0.103125Z" fill="#4A86E8"/>
<path d="M13.6313 11.0531C12.6563 11.3063 11.7469 12.0563 11.2875 12.9844C11.0438 13.4906 11.0156 13.6406 11.0156 14.4844C11.0156 15.3 11.0438 15.4875 11.2688 15.9563C11.5969 16.6688 12.1594 17.25 12.8625 17.6344C13.4344 17.9438 13.4906 17.9531 14.4844 17.9531C15.4125 17.9531 15.5625 17.925 16.0312 17.7C16.6969 17.3719 17.3719 16.6969 17.7 16.0313C17.925 15.5625 17.9531 15.4125 17.9531 14.4844C17.9531 13.4906 17.9438 13.4344 17.6344 12.8625C16.9969 11.6906 15.975 11.0438 14.6719 11.0063C14.2594 10.9875 13.7906 11.0156 13.6313 11.0531Z" fill="#D5E3F9"/>
</svg>
