<svg width="34" height="34" viewBox="0 0 34 34" fill="none" xmlns="http://www.w3.org/2000/svg">
<path d="M7.47738 4.48906C6.09613 4.98047 4.83441 6.30859 4.43598 7.67656C4.28988 8.18125 4.23676 8.75234 4.2766 9.54922C4.31644 10.532 4.39613 10.8109 4.76801 11.5281C5.31254 12.5242 6.13598 13.3211 7.14535 13.7859C7.80941 14.1047 8.06176 14.1445 9.23051 14.1445C10.4258 14.1312 10.6383 14.0914 11.3555 13.7461C12.3649 13.2547 13.2547 12.3648 13.7461 11.3555C14.0914 10.6383 14.1313 10.4258 14.1446 9.23047C14.1446 8.06172 14.1047 7.80937 13.786 7.14531C13.3211 6.13594 12.5243 5.3125 11.5282 4.76797C10.7711 4.36953 10.5719 4.31641 9.42973 4.28984C8.46019 4.25 8.00863 4.30312 7.47738 4.48906Z" fill="#D5E3F9"/>
<path d="M26.6289 4.39609C26.2172 4.62187 4.66172 26.1906 4.43594 26.5891C4.32969 26.7883 4.25 27.2664 4.25 27.6516C4.25 28.9398 5.06016 29.75 6.34844 29.75C6.73359 29.75 7.18516 29.6836 7.34453 29.6039C7.75625 29.3914 29.325 7.84922 29.5641 7.41094C29.6703 7.21172 29.75 6.73359 29.75 6.34844C29.75 5.04688 28.9398 4.25 27.625 4.25C27.2266 4.25 26.775 4.3164 26.6289 4.39609Z" fill="#4A86E8"/>
<path d="M23.5609 19.9086C22.1797 20.2672 20.8914 21.3297 20.2406 22.6445C19.8953 23.3617 19.8555 23.5742 19.8555 24.7695C19.8555 25.925 19.8953 26.1906 20.2141 26.8547C20.6789 27.8641 21.4758 28.6875 22.4719 29.232C23.282 29.6703 23.3617 29.6836 24.7695 29.6836C26.0844 29.6836 26.2969 29.6438 26.9609 29.325C27.9039 28.8602 28.8602 27.9039 29.325 26.9609C29.6438 26.2969 29.6836 26.0844 29.6836 24.7695C29.6836 23.3617 29.6703 23.282 29.232 22.4719C28.3289 20.8117 26.8813 19.8953 25.0352 19.8422C24.4508 19.8156 23.7867 19.8555 23.5609 19.9086Z" fill="#D5E3F9"/>
</svg>
