<svg width="32" height="32" viewBox="0 0 32 32" fill="none" xmlns="http://www.w3.org/2000/svg">
<path d="M13.5 0.1875C9.0375 1.1875 5.625 4.4 4.35 8.825C4.1 9.6875 4.0625 10.0875 4.0625 12C4.0625 13.9125 4.1 14.3125 4.35 15.175C4.9375 17.2125 5.8625 18.825 7.3 20.3375L8.1625 21.25H7.0125C6.375 21.25 5.75 21.3 5.625 21.375C5.4 21.5 1.25 31 1.25 31.4C1.25 31.5125 1.3375 31.7 1.45 31.8C1.625 31.975 3.1125 32 16 32C28.8875 32 30.375 31.975 30.55 31.8C30.6625 31.7 30.75 31.5125 30.75 31.4C30.75 31 26.6 21.5 26.375 21.375C26.25 21.3 25.625 21.25 24.9875 21.25H23.8375L24.7 20.3375C26.1375 18.825 27.0625 17.2125 27.65 15.175C27.9 14.3125 27.9375 13.9125 27.9375 12C27.9375 10.0875 27.9 9.6875 27.65 8.825C26.45 4.675 23.3625 1.575 19.2375 0.3625C18.025 0.0124995 14.75 -0.0875005 13.5 0.1875ZM18.8 1.8125C22.475 2.875 25.075 5.475 26.2 9.2125C26.4875 10.1625 26.5375 10.5375 26.5375 12C26.5375 13.4625 26.4875 13.8375 26.2 14.7875C25.8125 16.1 25.2875 17.1625 24.5625 18.1875C24.2625 18.6 22.2125 20.7375 20.0125 22.9375L16 26.9375L11.9875 22.9375C9.7875 20.7375 7.7375 18.6 7.4375 18.1875C5.5125 15.5 4.925 12.25 5.825 9.175C7 5.1 10.3375 2.1625 14.5375 1.4875C15.65 1.3125 17.5875 1.4625 18.8 1.8125ZM12.6875 25.75C14.95 28 15.775 28.75 16 28.75C16.225 28.75 17.05 28 19.3125 25.75L22.325 22.7375L23.9375 22.775L25.5375 22.8125L27.2 26.6875L28.8625 30.5625L22.425 30.6C18.8875 30.6125 13.1125 30.6125 9.575 30.6L3.1375 30.5625L4.6875 26.9375C5.55 24.9375 6.3 23.1875 6.375 23.025C6.4875 22.7625 6.55 22.75 8.0875 22.75H9.675L12.6875 25.75Z" fill="#4A86E8"/>
<path d="M14.55 5.43892C11.525 6.10142 9.25 8.90142 9.25 12.0014C9.25 13.6889 10.025 15.5139 11.25 16.7514C15.025 20.5139 21.4375 18.6014 22.575 13.3764C22.7875 12.3514 22.7875 11.6514 22.575 10.6139C21.8 6.96392 18.2125 4.63892 14.55 5.43892ZM17.875 7.11392C19.975 7.92642 21.375 10.0889 21.225 12.2889C21.0625 14.5514 19.625 16.3639 17.4625 17.0264C15.35 17.6639 13 16.8264 11.7125 15.0014C9.7 12.1139 11.0625 8.10142 14.4375 7.00142C15.4125 6.67642 16.8875 6.72642 17.875 7.11392Z" fill="#4A86E8"/>
</svg>
