<svg width="22" height="28" viewBox="0 0 22 28" fill="none" xmlns="http://www.w3.org/2000/svg">
<path d="M0.9 0.25C0.675 0.387499 0.3875 0.674999 0.25 0.9C0 1.3 0 1.5625 0 14.2375V27.15L0.425 27.575L0.85 28H10.5H20.15L20.575 27.575C20.925 27.225 21 27.05 21 26.6375C21 26.1875 21.075 26.05 21.5 25.6375L22 25.1625V13.0125V0.85L21.575 0.424999L21.15 0H11.2375C1.55 0 1.3 0.0124989 0.9 0.25ZM20.75 1.25C20.8875 1.3875 21 1.6 21 1.7375C21 1.8625 20.8875 2 20.75 2.0375C20.525 2.1 20.5 2.2125 20.5 3C20.5 3.7875 20.525 3.9 20.75 3.9625C21 4.025 21 4.1375 21 14.2625C21 24.3375 21 24.5 20.75 24.75C20.5 25 20.3375 25 10.75 25H1V14.5125C1 4.1375 1 4.025 1.25 3.9625C1.475 3.9 1.5 3.7875 1.5 3.0125C1.5 2.3375 1.45 2.1125 1.3 2.025C1.1625 1.95 1.125 1.825 1.1875 1.6375C1.3875 1.0125 1.4 1.0125 11.2875 1C20.3375 1 20.5 1 20.75 1.25ZM20 26.25C20 26.3875 19.8875 26.6125 19.75 26.75C19.5 27 19.3375 27 10.55 27C4.625 27 1.525 26.9625 1.3625 26.875C1.0625 26.7125 1.05 26.3 1.35 26.1375C1.4875 26.05 4.75 26.0125 10.7875 26C19.9125 26 20 26 20 26.25Z" fill="#4A86E8"/>
<path d="M3.05046 2.1625C3.01296 2.2625 3.00046 2.7 3.02546 3.1375L3.06296 3.9375H3.50046H3.93796V3V2.0625L3.52546 2.025C3.26296 2 3.10046 2.05 3.05046 2.1625Z" fill="#4A86E8"/>
<path d="M5.55046 2.1625C5.51296 2.2625 5.50046 2.7 5.52546 3.1375L5.56296 3.9375H6.00046H6.43796V3V2.0625L6.02546 2.025C5.76296 2 5.60046 2.05 5.55046 2.1625Z" fill="#4A86E8"/>
<path d="M8.05046 2.1625C8.01296 2.2625 8.00046 2.7 8.02546 3.1375L8.06296 3.9375H8.50046H8.93796V3V2.0625L8.52546 2.025C8.26296 2 8.10046 2.05 8.05046 2.1625Z" fill="#4A86E8"/>
<path d="M10.5505 2.1625C10.513 2.2625 10.5005 2.7 10.5255 3.1375L10.563 3.9375H11.0005H11.438V3V2.0625L11.0255 2.025C10.763 2 10.6005 2.05 10.5505 2.1625Z" fill="#4A86E8"/>
<path d="M13.0505 2.1625C13.013 2.2625 13.0005 2.7 13.0255 3.1375L13.063 3.9375H13.5005H13.938V3V2.0625L13.5255 2.025C13.263 2 13.1005 2.05 13.0505 2.1625Z" fill="#4A86E8"/>
<path d="M15.5505 2.1625C15.513 2.2625 15.5005 2.7 15.5255 3.1375L15.563 3.9375H16.0005H16.438V3V2.0625L16.0255 2.025C15.763 2 15.6005 2.05 15.5505 2.1625Z" fill="#4A86E8"/>
<path d="M18.0505 2.1625C18.013 2.2625 18.0005 2.7 18.0255 3.1375L18.063 3.9375H18.5005H18.938V3V2.0625L18.5255 2.025C18.263 2 18.1005 2.05 18.0505 2.1625Z" fill="#4A86E8"/>
<path d="M9.10005 6.23735C7.28755 6.82485 5.73755 8.41235 5.20005 10.2374C4.93755 11.1249 4.93755 12.8749 5.20005 13.7624C5.73755 15.6124 7.30005 17.1874 9.13755 17.7624C10.1625 18.0874 11.8375 18.0874 12.8625 17.7624C14.7 17.1874 16.2625 15.6124 16.8 13.7624C17.0625 12.8749 17.0625 11.1249 16.8 10.2374C16.2625 8.38735 14.7 6.81235 12.8625 6.23735C11.85 5.92485 10.0875 5.92485 9.10005 6.23735ZM10.5 9.37485V11.4999H9.56255H8.62505V11.0874C8.62505 10.5874 8.93755 9.37485 9.23755 8.68735C9.47505 8.14985 10.2 7.24985 10.3875 7.24985C10.45 7.24985 10.5 8.19985 10.5 9.37485ZM12.125 7.71235C12.7625 8.43735 13.375 10.0874 13.375 11.0874V11.4999H12.4375H11.5V9.37485C11.5 8.19985 11.55 7.24985 11.6125 7.24985C11.675 7.24985 11.9125 7.46235 12.125 7.71235ZM8.18755 8.26235C7.91255 8.78735 7.50005 10.4374 7.50005 11.0249V11.4999H6.80005H6.08755L6.16255 11.0624C6.28755 10.2624 6.85005 9.26235 7.55005 8.56235C7.92505 8.18735 8.26255 7.87485 8.31255 7.87485C8.35005 7.87485 8.28755 8.04985 8.18755 8.26235ZM14.875 9.01235C15.35 9.62485 15.875 10.7874 15.875 11.2499C15.875 11.4624 15.7875 11.4999 15.1875 11.4999H14.5V11.0249C14.5 10.4374 14.0875 8.78735 13.8125 8.23735L13.6 7.83735L14 8.12485C14.2125 8.27485 14.6125 8.67485 14.875 9.01235ZM7.50005 12.9749C7.50005 13.5624 7.91255 15.2124 8.18755 15.7624L8.40005 16.1624L8.01255 15.8874C7.20005 15.2999 6.32505 13.9124 6.16255 12.9624L6.08755 12.4999H6.80005H7.50005V12.9749ZM10.5 14.6249C10.5 15.7999 10.45 16.7499 10.3875 16.7499C10.2 16.7499 9.47505 15.8499 9.23755 15.3124C8.93755 14.6249 8.62505 13.4124 8.62505 12.9124V12.4999H9.56255H10.5V14.6249ZM13.375 12.9124C13.375 13.4124 13.0625 14.6249 12.7625 15.3124C12.525 15.8499 11.8 16.7499 11.6125 16.7499C11.55 16.7499 11.5 15.7999 11.5 14.6249V12.4999H12.4375H13.375V12.9124ZM15.875 12.7499C15.875 13.5624 14.85 15.2749 14 15.8749L13.6 16.1624L13.8125 15.7624C14.0875 15.2124 14.5 13.5624 14.5 12.9749V12.4999H15.1875C15.7875 12.4999 15.875 12.5374 15.875 12.7499Z" fill="#4A86E8"/>
<path d="M5.55046 20.175C5.51296 20.275 5.50046 20.4875 5.52546 20.65L5.56296 20.9375H9.00046H12.438V20.5V20.0625L9.02546 20.025C6.15046 20 5.61296 20.025 5.55046 20.175Z" fill="#4A86E8"/>
<path d="M13.5505 20.175C13.513 20.275 13.5005 20.4875 13.5255 20.65C13.563 20.9375 13.588 20.9375 15.0005 20.9375H16.438V20.5V20.0625L15.0255 20.025C13.888 20 13.613 20.025 13.5505 20.175Z" fill="#4A86E8"/>
<path d="M6.55046 22.175C6.51296 22.275 6.50046 22.4875 6.52546 22.65L6.56296 22.9375H11.0005H15.438V22.5V22.0625L11.0255 22.025C7.28796 22 6.61296 22.025 6.55046 22.175Z" fill="#4A86E8"/>
</svg>
