<svg width="28" height="28" viewBox="0 0 28 28" fill="none" xmlns="http://www.w3.org/2000/svg">
<path d="M5.93739 0.539941C5.52489 0.702441 4.64989 1.17744 3.98739 1.60244C2.74989 2.40244 1.94989 2.75244 1.38739 2.75244C0.662394 2.75244 0.274894 3.38994 0.662394 3.92744C0.799894 4.12744 0.962394 4.15244 1.63739 4.10244C2.54989 4.05244 3.63739 3.58994 4.89989 2.73994C5.33739 2.43994 5.99989 2.07744 6.37489 1.91494C7.66239 1.38994 8.42489 1.55244 10.4874 2.86494C12.1124 3.87744 12.8124 4.12744 13.9999 4.12744C15.1874 4.12744 15.8874 3.87744 17.5124 2.86494C19.5749 1.55244 20.3374 1.38994 21.6249 1.91494C21.9999 2.07744 22.6624 2.43994 23.0999 2.73994C24.3624 3.58994 25.4499 4.05244 26.3624 4.10244C27.0374 4.15244 27.1999 4.12744 27.3374 3.92744C27.7249 3.38994 27.3374 2.75244 26.6124 2.75244C26.0374 2.75244 25.2624 2.40244 23.9374 1.56494C22.2374 0.477441 21.4749 0.214941 20.1874 0.277441C19.0499 0.339941 18.1124 0.702441 16.7499 1.62744C14.5374 3.12744 13.4624 3.12744 11.2499 1.62744C9.84989 0.677441 8.94989 0.327441 7.74989 0.289941C6.87489 0.252441 6.54989 0.302441 5.93739 0.539941Z" fill="#4A86E8"/>
<path d="M6.4 8.06435C5.6 8.28935 5.275 8.45185 3.9625 9.30185C2.7375 10.1018 2.2 10.3393 1.3625 10.4518C0.725 10.5393 0.5 10.7393 0.5 11.2268C0.5 11.3518 0.6125 11.5643 0.75 11.6893C0.95 11.8768 1.125 11.9018 1.7125 11.8268C2.575 11.7268 3.45 11.3393 4.7875 10.4893C6.1875 9.58935 6.8125 9.33935 7.625 9.35185C8.475 9.36435 8.9625 9.56435 10.4875 10.5393C12.1625 11.6018 12.7125 11.8018 14 11.8018C15.2875 11.8018 15.8375 11.6018 17.5125 10.5393C19.0375 9.56435 19.525 9.36435 20.375 9.35185C21.1875 9.33935 21.8125 9.58935 23.2125 10.4893C24.55 11.3393 25.425 11.7268 26.2875 11.8268C26.875 11.9018 27.05 11.8768 27.25 11.6893C27.3875 11.5643 27.5 11.3518 27.5 11.2268C27.5 10.7393 27.275 10.5393 26.625 10.4518C25.8 10.3393 25.175 10.0643 23.7625 9.13935C22.275 8.17685 21.5875 7.93935 20.3125 7.93935C19.4125 7.93935 19.2125 7.98935 18.375 8.40185C17.8625 8.65185 16.9375 9.17685 16.3375 9.55185C14.375 10.7768 13.5375 10.7518 11.4375 9.42685C9.15 7.97685 7.9 7.63935 6.4 8.06435Z" fill="#4A86E8"/>
<path d="M6.05004 15.8524C5.68754 15.9774 4.81254 16.4524 4.11254 16.8899C2.65004 17.8149 1.93754 18.1274 1.32504 18.1274C0.662537 18.1274 0.312537 18.6774 0.625037 19.2649C0.725037 19.4524 0.887537 19.5024 1.36254 19.5024C2.23754 19.5024 3.07504 19.2149 4.26254 18.4899C6.17504 17.3149 6.60004 17.1149 7.30004 17.0399C8.20004 16.9524 8.83754 17.1774 10.4625 18.2024C12.0625 19.2024 12.875 19.5024 14 19.5024C15.125 19.5024 15.9375 19.2024 17.5375 18.2024C19.1625 17.1774 19.8 16.9524 20.7 17.0399C21.4 17.1149 21.825 17.3149 23.7375 18.4899C24.925 19.2149 25.7625 19.5024 26.6375 19.5024C27.1125 19.5024 27.275 19.4524 27.375 19.2649C27.6875 18.6774 27.3375 18.1274 26.6625 18.1274C26.05 18.1274 25.325 17.8149 24.0875 17.0149C22.4375 15.9399 21.875 15.7149 20.675 15.6524C19.45 15.5899 18.7125 15.7899 17.5 16.5399C15.325 17.8899 15.025 18.0274 14.2875 18.0899C13.3625 18.1774 12.7125 17.9274 11.075 16.8899C10.4 16.4524 9.53754 16.0024 9.15004 15.8649C8.27504 15.5649 6.91254 15.5524 6.05004 15.8524Z" fill="#4A86E8"/>
<path d="M6.37523 23.4264C5.70023 23.6264 5.22523 23.8639 4.12523 24.5639C2.87523 25.3639 2.31273 25.6264 1.52523 25.7639C1.13773 25.8389 0.737732 25.9889 0.662732 26.1014C0.400232 26.4264 0.475232 26.8514 0.812732 27.0764C1.42523 27.4764 2.98773 27.0264 4.58773 25.9764C5.71273 25.2389 6.61273 24.8014 7.27523 24.6889C7.95023 24.5639 8.93773 24.9014 10.0752 25.6389C12.0877 26.9514 13.2627 27.3639 14.5502 27.1889C15.4627 27.0639 16.0127 26.8139 17.5627 25.8514C19.0877 24.9014 20.0252 24.5514 20.7252 24.6889C21.3627 24.8014 22.3377 25.2639 23.2127 25.8514C24.3252 26.6014 25.1377 26.9764 26.0377 27.1389C26.7627 27.2764 26.9002 27.2639 27.1752 27.0764C27.5252 26.8514 27.6002 26.4264 27.3502 26.1014C27.2627 25.9889 26.8627 25.8389 26.4502 25.7639C25.7002 25.6264 25.2252 25.3889 23.3877 24.2639C22.0752 23.4639 21.5752 23.3139 20.3127 23.3264C19.0752 23.3389 18.4502 23.5639 16.8627 24.6014C15.3627 25.5764 14.8627 25.7764 14.0002 25.7764C13.1377 25.7764 12.6377 25.5764 11.1377 24.6014C10.4877 24.1764 9.67523 23.7264 9.32523 23.5889C8.52523 23.2889 7.11273 23.2014 6.37523 23.4264Z" fill="#4A86E8"/>
</svg>
