<svg width="31" height="17" viewBox="0 0 31 17" fill="none" xmlns="http://www.w3.org/2000/svg">
<path d="M3.30979 10.0852C3.36966 9.9009 3.63034 9.9009 3.69021 10.0852L4.2409 11.78C4.26767 11.8624 4.34446 11.9182 4.43111 11.9182L6.21316 11.9182C6.40691 11.9182 6.48746 12.1661 6.33072 12.28L4.88901 13.3275C4.81891 13.3784 4.78958 13.4687 4.81635 13.5511L5.36704 15.2459C5.42691 15.4302 5.21601 15.5834 5.05927 15.4695L3.61756 14.422C3.54746 14.3711 3.45254 14.3711 3.38244 14.422L1.94073 15.4695C1.78399 15.5834 1.57309 15.4302 1.63296 15.2459L2.18365 13.5511C2.21042 13.4687 2.18109 13.3784 2.11099 13.3275L0.669281 12.28C0.512539 12.1661 0.593094 11.9182 0.786839 11.9182L2.56889 11.9182C2.65554 11.9182 2.73233 11.8624 2.7591 11.78L3.30979 10.0852Z" fill="#CAB47A"/>
<path d="M27.6902 10.0852C27.6303 9.9009 27.3697 9.9009 27.3098 10.0852L26.7591 11.78C26.7323 11.8624 26.6555 11.9182 26.5689 11.9182L24.7868 11.9182C24.5931 11.9182 24.5125 12.1661 24.6693 12.28L26.111 13.3275C26.1811 13.3784 26.2104 13.4687 26.1836 13.5511L25.633 15.2459C25.5731 15.4302 25.784 15.5834 25.9407 15.4695L27.3824 14.422C27.4525 14.3711 27.5475 14.3711 27.6176 14.422L29.0593 15.4695C29.216 15.5834 29.4269 15.4302 29.367 15.2459L28.8164 13.5511C28.7896 13.4687 28.8189 13.3784 28.889 13.3275L30.3307 12.28C30.4875 12.1661 30.4069 11.9182 30.2132 11.9182L28.4311 11.9182C28.3445 11.9182 28.2677 11.8624 28.2409 11.78L27.6902 10.0852Z" fill="#CAB47A"/>
<path d="M7.81052 5.08468C7.87039 4.90041 8.13107 4.90042 8.19094 5.08468L8.74163 6.77951C8.7684 6.86192 8.84519 6.91771 8.93184 6.91771L10.7139 6.91771C10.9076 6.91771 10.9882 7.16563 10.8314 7.27951L9.38974 8.32698C9.31964 8.3779 9.29031 8.46818 9.31708 8.55058L9.86777 10.2454C9.92764 10.4297 9.71674 10.5829 9.56 10.469L8.11829 9.42156C8.04819 9.37063 7.95327 9.37063 7.88317 9.42156L6.44146 10.469C6.28472 10.5829 6.07382 10.4297 6.1337 10.2454L6.68438 8.55058C6.71115 8.46818 6.68182 8.3779 6.61173 8.32698L5.17001 7.27951C5.01327 7.16563 5.09383 6.91771 5.28757 6.91771L7.06962 6.91771C7.15627 6.91771 7.23306 6.86192 7.25984 6.77951L7.81052 5.08468Z" fill="#CAB47A"/>
<path d="M23.1895 5.08468C23.1296 4.90041 22.8689 4.90042 22.8091 5.08468L22.2584 6.77951C22.2316 6.86192 22.1548 6.91771 22.0682 6.91771L20.2861 6.91771C20.0924 6.91771 20.0118 7.16563 20.1686 7.27951L21.6103 8.32698C21.6804 8.3779 21.7097 8.46818 21.6829 8.55058L21.1322 10.2454C21.0724 10.4297 21.2833 10.5829 21.44 10.469L22.8817 9.42156C22.9518 9.37063 23.0467 9.37063 23.1168 9.42156L24.5585 10.469C24.7153 10.5829 24.9262 10.4297 24.8663 10.2454L24.3156 8.55058C24.2888 8.46818 24.3182 8.3779 24.3883 8.32698L25.83 7.27951C25.9867 7.16563 25.9062 6.91771 25.7124 6.91771L23.9304 6.91771C23.8437 6.91771 23.7669 6.86192 23.7402 6.77951L23.1895 5.08468Z" fill="#CAB47A"/>
<path d="M15.3091 0.585411C15.3689 0.401148 15.6296 0.401148 15.6895 0.58541L16.4647 2.97123C16.4915 3.05363 16.5682 3.10942 16.6549 3.10942H19.1635C19.3572 3.10942 19.4378 3.35735 19.281 3.47123L17.2515 4.94574C17.1814 4.99667 17.1521 5.08694 17.1789 5.16935L17.9541 7.55517C18.014 7.73943 17.8031 7.89265 17.6463 7.77877L15.6168 6.30426C15.5467 6.25333 15.4518 6.25333 15.3817 6.30426L13.3522 7.77877C13.1955 7.89265 12.9846 7.73943 13.0444 7.55517L13.8196 5.16935C13.8464 5.08694 13.8171 4.99667 13.747 4.94574L11.7175 3.47123C11.5608 3.35735 11.6413 3.10942 11.8351 3.10942H14.3436C14.4303 3.10942 14.5071 3.05363 14.5339 2.97123L15.3091 0.585411Z" fill="#CAB47A"/>
</svg>
