<svg width="64" height="35" viewBox="0 0 64 35" fill="none" xmlns="http://www.w3.org/2000/svg">
<path d="M6.83311 20.8209C6.95672 20.4405 7.4949 20.4405 7.6185 20.8209L8.7554 24.3199C8.81068 24.49 8.96921 24.6052 9.14809 24.6052H12.8272C13.2272 24.6052 13.3935 25.1171 13.0699 25.3522L10.0934 27.5147C9.94872 27.6198 9.88816 27.8062 9.94344 27.9763L11.0803 31.4753C11.2039 31.8557 10.7685 32.1721 10.4449 31.937L7.4685 29.7745C7.32379 29.6693 7.12782 29.6693 6.98311 29.7745L4.00667 31.937C3.68307 32.1721 3.24767 31.8557 3.37128 31.4753L4.50818 27.9763C4.56345 27.8062 4.5029 27.6198 4.35818 27.5147L1.38174 25.3522C1.05815 25.1171 1.22445 24.6052 1.62444 24.6052H5.30352C5.4824 24.6052 5.64094 24.49 5.69621 24.3199L6.83311 20.8209Z" fill="#CAB47A"/>
<path d="M57.1669 20.8209C57.0433 20.4405 56.5051 20.4405 56.3815 20.8209L55.2446 24.3199C55.1893 24.49 55.0308 24.6052 54.8519 24.6052H51.1728C50.7728 24.6052 50.6065 25.1171 50.9301 25.3522L53.9066 27.5147C54.0513 27.6198 54.1118 27.8062 54.0566 27.9763L52.9197 31.4753C52.7961 31.8557 53.2315 32.1721 53.5551 31.937L56.5315 29.7745C56.6762 29.6693 56.8722 29.6693 57.0169 29.7745L59.9933 31.937C60.3169 32.1721 60.7523 31.8557 60.6287 31.4753L59.4918 27.9763C59.4365 27.8062 59.4971 27.6198 59.6418 27.5147L62.6183 25.3522C62.9419 25.1171 62.7755 24.6052 62.3756 24.6052H58.6965C58.5176 24.6052 58.3591 24.49 58.3038 24.3199L57.1669 20.8209Z" fill="#CAB47A"/>
<path d="M16.125 10.4972C16.2486 10.1167 16.7868 10.1168 16.9104 10.4972L18.0473 13.9962C18.1025 14.1663 18.2611 14.2815 18.44 14.2815H22.119C22.519 14.2815 22.6853 14.7933 22.3617 15.0284L19.3853 17.1909C19.2406 17.2961 19.18 17.4825 19.2353 17.6526L20.3722 21.1516C20.4958 21.532 20.0604 21.8483 19.7368 21.6132L16.7604 19.4507C16.6157 19.3456 16.4197 19.3456 16.275 19.4507L13.2985 21.6132C12.9749 21.8483 12.5395 21.532 12.6631 21.1516L13.8 17.6526C13.8553 17.4825 13.7948 17.2961 13.65 17.1909L10.6736 15.0284C10.35 14.7933 10.5163 14.2815 10.9163 14.2815H14.5954C14.7743 14.2815 14.9328 14.1663 14.9881 13.9962L16.125 10.4972Z" fill="#CAB47A"/>
<path d="M47.875 10.4972C47.7514 10.1167 47.2132 10.1168 47.0896 10.4972L45.9527 13.9962C45.8975 14.1663 45.7389 14.2815 45.56 14.2815H41.881C41.481 14.2815 41.3147 14.7933 41.6383 15.0284L44.6147 17.1909C44.7594 17.2961 44.82 17.4825 44.7647 17.6526L43.6278 21.1516C43.5042 21.532 43.9396 21.8483 44.2632 21.6132L47.2396 19.4507C47.3843 19.3456 47.5803 19.3456 47.725 19.4507L50.7015 21.6132C51.0251 21.8483 51.4605 21.532 51.3369 21.1516L50.2 17.6526C50.1447 17.4825 50.2052 17.2961 50.35 17.1909L53.3264 15.0284C53.65 14.7933 53.4837 14.2815 53.0837 14.2815H49.4046C49.2257 14.2815 49.0672 14.1663 49.0119 13.9962L47.875 10.4972Z" fill="#CAB47A"/>
<path d="M31.6058 1.20859C31.7294 0.828176 32.2675 0.828177 32.3911 1.20859L33.9916 6.13415C34.0468 6.30427 34.2054 6.41945 34.3843 6.41945H39.5633C39.9633 6.41945 40.1296 6.9313 39.806 7.1664L35.6161 10.2106C35.4713 10.3157 35.4108 10.5021 35.4661 10.6722L37.0665 15.5978C37.1901 15.9782 36.7547 16.2945 36.4311 16.0594L32.2411 13.0152C32.0964 12.9101 31.9005 12.9101 31.7558 13.0152L27.5658 16.0594C27.2422 16.2945 26.8068 15.9782 26.9304 15.5978L28.5308 10.6722C28.5861 10.5021 28.5256 10.3157 28.3808 10.2106L24.1909 7.1664C23.8673 6.9313 24.0336 6.41945 24.4336 6.41945H29.6127C29.7915 6.41945 29.9501 6.30427 30.0053 6.13415L31.6058 1.20859Z" fill="#CAB47A"/>
</svg>
