<svg width="33" height="33" viewBox="0 0 33 33" fill="none" xmlns="http://www.w3.org/2000/svg">
<path d="M16.7302 32.5397C25.7158 32.5397 33 25.2554 33 16.2698C33 7.28426 25.7158 0 16.7302 0C7.74458 0 0.460327 7.28426 0.460327 16.2698C0.460327 25.2554 7.74458 32.5397 16.7302 32.5397Z" fill="url(#paint0_linear_238_15)"/>
<path d="M13.7473 23.727C13.2203 23.727 13.3098 23.528 13.128 23.0261L11.578 17.9249L23.5093 10.8467" fill="#C8DAEA"/>
<path d="M13.7474 23.7267C14.1541 23.7267 14.3338 23.5407 14.5609 23.32L16.7302 21.2106L14.0242 19.5789" fill="#A9C9DD"/>
<path d="M14.024 19.5794L20.5807 24.4236C21.3289 24.8365 21.8689 24.6227 22.0553 23.729L24.7242 11.152C24.9975 10.0565 24.3066 9.55958 23.5908 9.88454L7.91891 15.9276C6.84916 16.3566 6.85539 16.9535 7.72392 17.2194L11.7457 18.4747L21.0565 12.6006C21.4961 12.334 21.8995 12.4773 21.5684 12.7712" fill="url(#paint1_linear_238_15)"/>
<defs>
<linearGradient id="paint0_linear_238_15" x1="12.6643" y1="1.3569" x2="4.52941" y2="20.3373" gradientUnits="userSpaceOnUse">
<stop stop-color="#37AEE2"/>
<stop offset="1" stop-color="#1E96C8"/>
</linearGradient>
<linearGradient id="paint1_linear_238_15" x1="14.6935" y1="17.2693" x2="16.4319" y2="22.8925" gradientUnits="userSpaceOnUse">
<stop stop-color="#EFF7FC"/>
<stop offset="1" stop-color="white"/>
</linearGradient>
</defs>
</svg>
