<svg width="22" height="22" viewBox="0 0 22 22" fill="none" xmlns="http://www.w3.org/2000/svg">
<path d="M11 22C17.0751 22 22 17.0751 22 11C22 4.92487 17.0751 0 11 0C4.92487 0 0 4.92487 0 11C0 17.0751 4.92487 22 11 22Z" fill="url(#paint0_linear_241_482)"/>
<path d="M8.98339 16.0416C8.62703 16.0416 8.68758 15.907 8.56468 15.5677L7.51672 12.1188L15.5834 7.33325" fill="#C8DAEA"/>
<path d="M8.98328 16.0418C9.25828 16.0418 9.37978 15.916 9.53328 15.7668L10.9999 14.3406L9.17046 13.2374" fill="#A9C9DD"/>
<path d="M9.17037 13.2376L13.6034 16.5128C14.1092 16.7919 14.4743 16.6474 14.6003 16.0431L16.4048 7.53987C16.5895 6.79918 16.1224 6.46324 15.6385 6.68295L5.04276 10.7686C4.3195 11.0587 4.32372 11.4622 4.91093 11.642L7.63004 12.4907L13.9251 8.51924C14.2222 8.33903 14.495 8.43592 14.2711 8.6346" fill="url(#paint1_linear_241_482)"/>
<defs>
<linearGradient id="paint0_linear_241_482" x1="8.2511" y1="0.9174" x2="2.7511" y2="13.75" gradientUnits="userSpaceOnUse">
<stop stop-color="#37AEE2"/>
<stop offset="1" stop-color="#1E96C8"/>
</linearGradient>
<linearGradient id="paint1_linear_241_482" x1="9.62302" y1="11.6757" x2="10.7983" y2="15.4776" gradientUnits="userSpaceOnUse">
<stop stop-color="#EFF7FC"/>
<stop offset="1" stop-color="white"/>
</linearGradient>
</defs>
</svg>
