<svg width="32" height="32" viewBox="0 0 32 32" fill="none" xmlns="http://www.w3.org/2000/svg">
<path d="M16 2C16 0.89543 16.8989 -0.012893 17.9949 0.124817C20.9763 0.499444 23.8067 1.7085 26.1503 3.63183C29.0117 5.98016 30.9704 9.248 31.6925 12.8786C32.4147 16.5091 31.8557 20.2778 30.1107 23.5423C28.3658 26.8069 25.5428 29.3655 22.1229 30.7821C18.703 32.1986 14.8977 32.3856 11.3554 31.311C7.81316 30.2365 4.75305 27.967 2.6965 24.8891C0.639963 21.8113 -0.285759 18.1156 0.0770698 14.4317C0.374236 11.4145 1.5207 8.55822 3.36399 6.18513C4.04156 5.3128 5.31948 5.31945 6.10053 6.1005L12.5858 12.5858C13.8457 13.8457 16 12.9534 16 11.1716V2Z" fill="#4A86E8" fill-opacity="0.23"/>
<path d="M8.1464 9.90591L13.3802 17.5627C14.215 18.5355 16.3272 19.9901 18.0973 18.0259C20.3098 15.5707 17.8207 13.4552 17.329 13.1927C16.9356 12.9827 12.545 9.98095 10.3989 8.50633C9.96515 8.17487 8.95672 7.66997 8.39287 8.30201C7.82901 8.93405 7.99362 9.63463 8.1464 9.90591Z" fill="#4A86E8"/>
</svg>
