<svg width="36" height="35" viewBox="0 0 36 35" fill="none" xmlns="http://www.w3.org/2000/svg">
<circle cx="18.4141" cy="17.5" r="17.5" fill="#4C9DD9"/>
<g clip-path="url(#clip0_1_929)">
<path d="M19.1283 21.2879C18.9826 21.3494 18.8428 21.423 18.7104 21.5079C18.1029 21.9735 17.5039 22.4505 16.9006 22.9234C16.5792 23.1795 16.2749 23.0917 16.1506 22.7025C15.7291 21.4015 15.3094 20.1002 14.8915 18.7986C14.8787 18.7401 14.8497 18.686 14.8077 18.642C14.7656 18.598 14.7121 18.5658 14.6526 18.5487C13.5811 18.1694 12.5096 17.784 11.4381 17.3923C11.3277 17.3551 11.2297 17.2902 11.1541 17.2044C11.1189 17.1568 11.0957 17.102 11.0861 17.0443C11.0765 16.9866 11.081 16.9275 11.099 16.8717C11.1171 16.8159 11.1483 16.7649 11.1902 16.7227C11.2321 16.6804 11.2835 16.6481 11.3406 16.6282C11.5463 16.5394 11.7606 16.4682 11.9717 16.3897C16.4934 14.7088 21.0159 13.0279 25.5391 11.347C25.6331 11.3079 25.7347 11.2889 25.837 11.2912C26.0877 11.3129 26.2335 11.5359 26.1788 11.792C26.0138 12.565 25.8474 13.339 25.6795 14.1141C25.133 16.6437 24.5873 19.174 24.0422 21.7051C23.9061 22.3349 23.7711 22.9657 23.6318 23.5945C23.5515 23.9549 23.244 24.0695 22.9321 23.8527C21.8049 23.0659 20.682 22.276 19.5505 21.4934C19.4154 21.4145 19.2743 21.3458 19.1283 21.2879ZM15.633 18.5218C15.6386 18.5789 15.6486 18.6355 15.663 18.6912C15.9023 19.5055 16.1431 20.3198 16.3852 21.1341C16.4131 21.2301 16.4592 21.3013 16.5749 21.2941C16.6906 21.2869 16.7335 21.2022 16.7474 21.1C16.7978 20.7293 16.8546 20.3597 16.8974 19.988C16.934 19.5985 17.1261 19.238 17.4332 18.9823C18.9054 17.6773 20.368 16.3598 21.8338 15.0475L22.8496 14.1378C22.9118 14.0821 22.9868 14.0243 22.9118 13.9313C22.8368 13.8384 22.7628 13.9004 22.6911 13.9448L22.6536 13.9664L17.5585 16.9896C17.0356 17.2994 16.5138 17.6091 15.9898 17.9189C15.8804 17.98 15.7897 18.068 15.727 18.174C15.6643 18.2799 15.6319 18.3999 15.633 18.5218Z" fill="white"/>
</g>
<defs>
<clipPath id="clip0_1_929">
<rect width="15.1126" height="12.673" fill="white" transform="translate(11.0753 11.2891)"/>
</clipPath>
</defs>
</svg>
