<svg width="38" height="34" viewBox="0 0 38 34" fill="none" xmlns="http://www.w3.org/2000/svg">
<g clip-path="url(#clip0_205_1169)">
<path d="M19.4285 10.5381C21.0027 13.6865 22.323 16.2256 22.3738 16.1748C22.4246 16.1367 22.8943 15.4004 23.4275 14.5498C24.2908 13.1533 24.4304 13.001 24.7859 12.9629L25.1795 12.9248L28.5564 19.666C30.9304 24.4014 31.9207 26.5215 31.8953 26.7627C31.8699 27.0293 31.781 27.1055 31.4509 27.1309L31.0447 27.1689L27.9216 20.9355C26.2078 17.4951 24.7605 14.7275 24.7097 14.7783C24.6589 14.8164 24.1892 15.5527 23.656 16.4033C22.7927 17.7998 22.6531 17.9521 22.2976 17.9902L21.9041 18.0283L19.0857 12.4043L16.2673 6.78028L15.658 8.49414C14.6043 11.376 14.6297 11.3506 14.198 11.3887C13.906 11.4141 13.6267 11.249 12.8777 10.665C12.3572 10.2461 11.8875 9.94141 11.8494 9.99219C11.7732 10.0811 5.53981 26.4961 5.41286 26.9404C5.36207 27.1436 5.61598 27.1563 9.43727 27.1563H13.5125L13.449 26.8643C13.2966 26.1914 12.6238 21.5449 12.6238 21.1387C12.6238 20.7324 12.7254 20.6182 13.9822 19.6152C14.8836 18.8916 15.4675 18.5234 15.6707 18.5234C15.8992 18.5234 16.5847 19.0439 18.1209 20.377C19.8982 21.9385 20.241 22.2939 20.241 22.5859C20.241 22.7764 19.9617 23.8682 19.6189 25.0107C19.2634 26.1533 19.0095 27.1055 19.0222 27.1182C19.0476 27.1436 20.8377 27.1436 22.9959 27.1309L26.9441 27.0928L25.3699 23.7285C23.6179 19.9834 23.5164 19.6025 24.3035 19.6025H24.7351L26.5505 23.4746C27.8455 26.2295 28.366 27.4609 28.3406 27.7275L28.3025 28.1084H23.0339H17.7654L17.7273 27.7275C17.7146 27.5117 18.0066 26.3184 18.3748 25.0742L19.0603 22.7891L17.3464 21.291L15.6453 19.8057L14.7058 20.5674C14.1853 20.9863 13.7664 21.3545 13.7664 21.3672C13.7664 21.3926 13.9695 22.7129 14.2107 24.3125C14.4646 25.9121 14.655 27.4102 14.6297 27.6641L14.5916 28.1084H9.32301H4.05446L4.01637 27.7529C3.99098 27.5244 5.18434 24.1855 7.48219 18.1045C9.42457 12.9883 11.0496 8.70996 11.1257 8.58301C11.3416 8.16406 11.8748 8.3291 12.8777 9.12891C13.3982 9.54785 13.8552 9.83985 13.906 9.78906C13.9441 9.73828 14.3377 8.69727 14.782 7.47852C15.7595 4.73633 15.7214 4.8125 16.1785 4.8125C16.5466 4.8125 16.6101 4.92676 19.4285 10.5381Z" fill="#4A86E8"/>
</g>
<g clip-path="url(#clip1_205_1169)">
<path d="M13.4355 7.39789C12.623 7.6264 12.293 7.79144 10.96 8.65472C9.71582 9.46722 9.16992 9.70843 8.31934 9.82269C7.67188 9.91156 7.44336 10.1147 7.44336 10.6098C7.44336 10.7368 7.55762 10.9526 7.69727 11.0795C7.90039 11.27 8.07812 11.2953 8.6748 11.2192C9.55078 11.1176 10.4395 10.7241 11.7979 9.86078C13.2197 8.94672 13.8545 8.69281 14.6797 8.7055C15.543 8.7182 16.0381 8.92132 17.5869 9.91156C19.2881 10.9907 19.8467 11.1938 21.1543 11.1938C22.4619 11.1938 23.0205 10.9907 24.7217 9.91156C26.2705 8.92132 26.7656 8.7182 27.6289 8.7055C28.4541 8.69281 29.0889 8.94672 30.5107 9.86078C31.8691 10.7241 32.7578 11.1176 33.6338 11.2192C34.2305 11.2953 34.4082 11.27 34.6113 11.0795C34.751 10.9526 34.8652 10.7368 34.8652 10.6098C34.8652 10.1147 34.6367 9.91156 33.9766 9.82269C33.1387 9.70843 32.5039 9.42914 31.0693 8.48968C29.5586 7.51214 28.8604 7.27093 27.5654 7.27093C26.6514 7.27093 26.4482 7.32172 25.5977 7.74066C25.0771 7.99457 24.1377 8.52777 23.5283 8.90863C21.5352 10.1528 20.6846 10.1274 18.5518 8.78168C16.2285 7.30902 14.959 6.96625 13.4355 7.39789Z" fill="#4A86E8"/>
<path d="M13.0801 15.3077C12.7119 15.4347 11.8233 15.9171 11.1123 16.3615C9.62697 17.3009 8.90333 17.6183 8.28126 17.6183C7.60841 17.6183 7.25294 18.1769 7.57033 18.7736C7.67189 18.964 7.83693 19.0148 8.31935 19.0148C9.20802 19.0148 10.0586 18.7228 11.2647 17.9865C13.207 16.7931 13.6387 16.59 14.3496 16.5138C15.2637 16.4249 15.9111 16.6534 17.5615 17.6945C19.1865 18.7101 20.0117 19.0148 21.1543 19.0148C22.2969 19.0148 23.1221 18.7101 24.7471 17.6945C26.3975 16.6534 27.0449 16.4249 27.959 16.5138C28.6699 16.59 29.1016 16.7931 31.044 17.9865C32.25 18.7228 33.1006 19.0148 33.9893 19.0148C34.4717 19.0148 34.6367 18.964 34.7383 18.7736C35.0557 18.1769 34.7002 17.6183 34.0147 17.6183C33.3926 17.6183 32.6563 17.3009 31.3994 16.4884C29.7236 15.3966 29.1524 15.1681 27.9336 15.1046C26.6895 15.0411 25.9404 15.2443 24.709 16.006C22.5 17.3771 22.1953 17.5167 21.4463 17.5802C20.5068 17.6691 19.8467 17.4152 18.1836 16.3615C17.4981 15.9171 16.6221 15.4601 16.2285 15.3204C15.3399 15.0157 13.9561 15.0031 13.0801 15.3077Z" fill="#4A86E8"/>
<path d="M13.4102 23.0001C12.7246 23.2032 12.2422 23.4445 11.125 24.1554C9.85551 24.9679 9.28422 25.2345 8.48441 25.3741C8.09086 25.4503 7.68461 25.6027 7.60844 25.7169C7.34183 26.047 7.41801 26.4786 7.76078 26.7071C8.38285 27.1134 9.96976 26.6564 11.5948 25.59C12.7373 24.8409 13.6514 24.3966 14.3243 24.2823C15.0098 24.1554 16.0127 24.4982 17.168 25.2472C19.212 26.5802 20.4053 26.9991 21.7129 26.8214C22.6397 26.6945 23.1983 26.4405 24.7725 25.463C26.3213 24.4982 27.2735 24.1427 27.9844 24.2823C28.6319 24.3966 29.6221 24.8663 30.5108 25.463C31.6407 26.2247 32.4659 26.6056 33.3799 26.7706C34.1162 26.9103 34.2559 26.8976 34.5352 26.7071C34.8907 26.4786 34.9668 26.047 34.7129 25.7169C34.6241 25.6027 34.2178 25.4503 33.7989 25.3741C33.0371 25.2345 32.5547 24.9933 30.6885 23.8507C29.3555 23.0382 28.8477 22.8859 27.5655 22.8986C26.3086 22.9113 25.6739 23.1398 24.0616 24.1935C22.5381 25.1837 22.0303 25.3868 21.1543 25.3868C20.2784 25.3868 19.7705 25.1837 18.2471 24.1935C17.587 23.7618 16.7618 23.3048 16.4063 23.1652C15.5938 22.8605 14.1592 22.7716 13.4102 23.0001Z" fill="#4A86E8"/>
</g>
<line x1="19.25" y1="5.06641" x2="19.25" y2="28.9336" stroke="#4A86E8" stroke-width="1.26953" stroke-linecap="round"/>
<defs>
<clipPath id="clip0_205_1169">
<rect width="16.25" height="32.5" fill="white" transform="translate(0.96875 0.75)"/>
</clipPath>
<clipPath id="clip1_205_1169">
<rect width="16.25" height="32.5" fill="white" transform="translate(21.1543 0.75)"/>
</clipPath>
</defs>
</svg>
