<svg width="32" height="32" viewBox="0 0 32 32" fill="none" xmlns="http://www.w3.org/2000/svg">
<path d="M5.9 2.25C5.675 2.3875 5.3875 2.675 5.25 2.9C5 3.3 5 3.5625 5 16.2375V29.15L5.425 29.575L5.85 30H15.5H25.15L25.575 29.575C25.925 29.225 26 29.05 26 28.6375C26 28.1875 26.075 28.05 26.5 27.6375L27 27.1625V15.0125V2.85L26.575 2.425L26.15 2H16.2375C6.55 2 6.3 2.0125 5.9 2.25ZM25.75 3.25C25.8875 3.3875 26 3.6 26 3.7375C26 3.8625 25.8875 4 25.75 4.0375C25.525 4.1 25.5 4.2125 25.5 5C25.5 5.7875 25.525 5.9 25.75 5.9625C26 6.025 26 6.1375 26 16.2625C26 26.3375 26 26.5 25.75 26.75C25.5 27 25.3375 27 15.75 27H6V16.5125C6 6.1375 6 6.025 6.25 5.9625C6.475 5.9 6.5 5.7875 6.5 5.0125C6.5 4.3375 6.45 4.1125 6.3 4.025C6.1625 3.95 6.125 3.825 6.1875 3.6375C6.3875 3.0125 6.4 3.0125 16.2875 3C25.3375 3 25.5 3 25.75 3.25ZM25 28.25C25 28.3875 24.8875 28.6125 24.75 28.75C24.5 29 24.3375 29 15.55 29C9.625 29 6.525 28.9625 6.3625 28.875C6.0625 28.7125 6.05 28.3 6.35 28.1375C6.4875 28.05 9.75 28.0125 15.7875 28C24.9125 28 25 28 25 28.25Z" fill="#4A86E8"/>
<path d="M8.05046 4.1625C8.01296 4.2625 8.00046 4.7 8.02546 5.1375L8.06296 5.9375H8.50046H8.93796V5V4.0625L8.52546 4.025C8.26296 4 8.10046 4.05 8.05046 4.1625Z" fill="#4A86E8"/>
<path d="M10.5505 4.1625C10.513 4.2625 10.5005 4.7 10.5255 5.1375L10.563 5.9375H11.0005H11.438V5V4.0625L11.0255 4.025C10.763 4 10.6005 4.05 10.5505 4.1625Z" fill="#4A86E8"/>
<path d="M13.0505 4.1625C13.013 4.2625 13.0005 4.7 13.0255 5.1375L13.063 5.9375H13.5005H13.938V5V4.0625L13.5255 4.025C13.263 4 13.1005 4.05 13.0505 4.1625Z" fill="#4A86E8"/>
<path d="M15.5505 4.1625C15.513 4.2625 15.5005 4.7 15.5255 5.1375L15.563 5.9375H16.0005H16.438V5V4.0625L16.0255 4.025C15.763 4 15.6005 4.05 15.5505 4.1625Z" fill="#4A86E8"/>
<path d="M18.0505 4.1625C18.013 4.2625 18.0005 4.7 18.0255 5.1375L18.063 5.9375H18.5005H18.938V5V4.0625L18.5255 4.025C18.263 4 18.1005 4.05 18.0505 4.1625Z" fill="#4A86E8"/>
<path d="M20.5505 4.1625C20.513 4.2625 20.5005 4.7 20.5255 5.1375L20.563 5.9375H21.0005H21.438V5V4.0625L21.0255 4.025C20.763 4 20.6005 4.05 20.5505 4.1625Z" fill="#4A86E8"/>
<path d="M23.0505 4.1625C23.013 4.2625 23.0005 4.7 23.0255 5.1375L23.063 5.9375H23.5005H23.938V5V4.0625L23.5255 4.025C23.263 4 23.1005 4.05 23.0505 4.1625Z" fill="#4A86E8"/>
<path d="M14.1 8.23735C12.2875 8.82485 10.7375 10.4124 10.2 12.2374C9.93755 13.1249 9.93755 14.8749 10.2 15.7624C10.7375 17.6124 12.3 19.1874 14.1375 19.7624C15.1625 20.0874 16.8375 20.0874 17.8625 19.7624C19.7 19.1874 21.2625 17.6124 21.8 15.7624C22.0625 14.8749 22.0625 13.1249 21.8 12.2374C21.2625 10.3874 19.7 8.81235 17.8625 8.23735C16.85 7.92485 15.0875 7.92485 14.1 8.23735ZM15.5 11.3749V13.4999H14.5625H13.625V13.0874C13.625 12.5874 13.9375 11.3749 14.2375 10.6874C14.475 10.1499 15.2 9.24985 15.3875 9.24985C15.45 9.24985 15.5 10.1999 15.5 11.3749ZM17.125 9.71235C17.7625 10.4374 18.375 12.0874 18.375 13.0874V13.4999H17.4375H16.5V11.3749C16.5 10.1999 16.55 9.24985 16.6125 9.24985C16.675 9.24985 16.9125 9.46235 17.125 9.71235ZM13.1875 10.2624C12.9125 10.7874 12.5 12.4374 12.5 13.0249V13.4999H11.8H11.0875L11.1625 13.0624C11.2875 12.2624 11.85 11.2624 12.55 10.5624C12.925 10.1874 13.2625 9.87485 13.3125 9.87485C13.35 9.87485 13.2875 10.0499 13.1875 10.2624ZM19.875 11.0124C20.35 11.6249 20.875 12.7874 20.875 13.2499C20.875 13.4624 20.7875 13.4999 20.1875 13.4999H19.5V13.0249C19.5 12.4374 19.0875 10.7874 18.8125 10.2374L18.6 9.83735L19 10.1249C19.2125 10.2749 19.6125 10.6749 19.875 11.0124ZM12.5 14.9749C12.5 15.5624 12.9125 17.2124 13.1875 17.7624L13.4 18.1624L13.0125 17.8874C12.2 17.2999 11.325 15.9124 11.1625 14.9624L11.0875 14.4999H11.8H12.5V14.9749ZM15.5 16.6249C15.5 17.7999 15.45 18.7499 15.3875 18.7499C15.2 18.7499 14.475 17.8499 14.2375 17.3124C13.9375 16.6249 13.625 15.4124 13.625 14.9124V14.4999H14.5625H15.5V16.6249ZM18.375 14.9124C18.375 15.4124 18.0625 16.6249 17.7625 17.3124C17.525 17.8499 16.8 18.7499 16.6125 18.7499C16.55 18.7499 16.5 17.7999 16.5 16.6249V14.4999H17.4375H18.375V14.9124ZM20.875 14.7499C20.875 15.5624 19.85 17.2749 19 17.8749L18.6 18.1624L18.8125 17.7624C19.0875 17.2124 19.5 15.5624 19.5 14.9749V14.4999H20.1875C20.7875 14.4999 20.875 14.5374 20.875 14.7499Z" fill="#4A86E8"/>
<path d="M10.5505 22.175C10.513 22.275 10.5005 22.4875 10.5255 22.65L10.563 22.9375H14.0005H17.438V22.5V22.0625L14.0255 22.025C11.1505 22 10.613 22.025 10.5505 22.175Z" fill="#4A86E8"/>
<path d="M18.5505 22.175C18.513 22.275 18.5005 22.4875 18.5255 22.65C18.563 22.9375 18.588 22.9375 20.0005 22.9375H21.438V22.5V22.0625L20.0255 22.025C18.888 22 18.613 22.025 18.5505 22.175Z" fill="#4A86E8"/>
<path d="M11.5505 24.175C11.513 24.275 11.5005 24.4875 11.5255 24.65L11.563 24.9375H16.0005H20.438V24.5V24.0625L16.0255 24.025C12.288 24 11.613 24.025 11.5505 24.175Z" fill="#4A86E8"/>
</svg>
