<svg width="36" height="35" viewBox="0 0 36 35" fill="none" xmlns="http://www.w3.org/2000/svg">
<circle cx="18.4141" cy="17.5" r="17.5" fill="#47C53A"/>
<g clip-path="url(#clip0_1_935)">
<path d="M18.3439 25.3872C17.0233 25.3902 15.7206 25.0814 14.5418 24.4862C14.4823 24.4531 14.4164 24.4334 14.3485 24.4283C14.2807 24.4233 14.2126 24.4331 14.1489 24.457C12.7787 24.8975 11.4069 25.3342 10.0334 25.7671C9.91651 25.8044 9.79962 25.8547 9.69084 25.7476C9.58207 25.6404 9.6324 25.5236 9.67136 25.4067C10.1184 24.0917 10.5659 22.7767 11.014 21.4617C11.0384 21.4011 11.0484 21.3356 11.043 21.2705C11.0377 21.2054 11.0172 21.1424 10.9831 21.0866C10.2317 19.7868 9.86833 18.2989 9.93599 16.7991C10.0772 13.7762 11.4702 11.4676 14.0401 9.88637C15.4476 9.02718 17.0842 8.61927 18.7303 8.71746C20.4157 8.79593 22.0385 9.37987 23.3875 10.3933C24.7365 11.4067 25.7493 12.8027 26.294 14.3996C26.8803 16.1425 26.872 18.0307 26.2704 19.7684C25.6687 21.5061 24.5077 22.9952 22.9692 24.0024C21.5951 24.9044 19.9876 25.3857 18.3439 25.3872ZM12.2559 23.2296L12.4264 23.1825C13.0612 22.9812 13.6992 22.7831 14.3323 22.5737C14.4066 22.5445 14.4868 22.5339 14.5661 22.543C14.6454 22.5521 14.7212 22.5805 14.7869 22.6257C15.6105 23.1516 16.5423 23.4846 17.5127 23.5998C18.7013 23.7464 19.9074 23.5703 21.0044 23.0898C22.1014 22.6093 23.0487 21.8422 23.7468 20.8691C24.5129 19.8094 24.9422 18.5436 24.9787 17.2365C25.0152 15.9293 24.6572 14.6415 23.9514 13.5408C23.077 12.1402 21.7055 11.1219 20.1119 10.69C18.8946 10.34 17.6015 10.3547 16.3925 10.7322C15.2128 11.082 14.1556 11.7572 13.342 12.6803C12.3585 13.7769 11.775 15.174 11.6865 16.6443C11.5981 18.1147 12.0099 19.5717 12.855 20.7782C12.9083 20.8462 12.9425 20.9271 12.9542 21.0127C12.9659 21.0983 12.9546 21.1854 12.9215 21.2652C12.6991 21.9114 12.4848 22.5542 12.2559 23.2296Z" fill="white"/>
<path d="M20.6148 21.0563C20.1391 21.0327 19.6694 20.9403 19.2202 20.782C17.3614 20.2235 16.0463 18.9816 14.9667 17.4328C14.5885 16.8889 14.2589 16.324 14.155 15.66C14.0363 15.0179 14.1688 14.3547 14.5252 13.8076C14.6108 13.6665 14.7247 13.5447 14.8596 13.4497C14.9945 13.3547 15.1476 13.2887 15.3093 13.2556C15.522 13.215 15.7346 13.1728 15.9489 13.1436C16.0653 13.1193 16.1865 13.1363 16.2917 13.1917C16.3969 13.2471 16.4795 13.3375 16.5253 13.4472C16.785 14.0251 17.0302 14.6096 17.2704 15.1956C17.3727 15.4473 17.2396 15.6648 17.1081 15.8629C16.988 16.035 16.837 16.1876 16.7087 16.3499C16.6779 16.3921 16.6552 16.4831 16.6779 16.5123C17.35 17.4701 18.1617 18.2689 19.2543 18.7462C19.277 18.7608 19.3026 18.7707 19.3293 18.775C19.356 18.7794 19.3833 18.7781 19.4095 18.7714C19.4358 18.7647 19.4603 18.7527 19.4816 18.736C19.503 18.7194 19.5206 18.6985 19.5335 18.6747C19.7073 18.4458 19.8956 18.225 20.0774 17.9994C20.2592 17.7737 20.4459 17.7006 20.7382 17.8127C20.9508 17.8922 21.157 17.9929 21.3616 18.0903C21.7236 18.2624 22.0808 18.441 22.4412 18.6163C22.5224 18.6532 22.591 18.7132 22.6383 18.7889C22.6857 18.8645 22.7097 18.9524 22.7074 19.0416C22.7691 20.2966 21.7658 20.9378 20.8583 21.0336C20.7836 21.0498 20.7106 21.0515 20.6148 21.0563Z" fill="white"/>
</g>
<defs>
<clipPath id="clip0_1_935">
<rect width="17.1064" height="17.1048" fill="white" transform="translate(9.62378 8.70898)"/>
</clipPath>
</defs>
</svg>
