<svg width="33" height="33" viewBox="0 0 33 33" fill="none" xmlns="http://www.w3.org/2000/svg">
<path d="M16.2698 32.5397C25.2554 32.5397 32.5397 25.2554 32.5397 16.2698C32.5397 7.28426 25.2554 0 16.2698 0C7.28426 0 0 7.28426 0 16.2698C0 25.2554 7.28426 32.5397 16.2698 32.5397Z" fill="#25D366"/>
<path fill-rule="evenodd" clip-rule="evenodd" d="M16.8061 25.3216H16.8021C15.1829 25.3211 13.592 24.9148 12.1789 24.144L7.05026 25.4894L8.42277 20.4761C7.57614 19.0089 7.13065 17.3446 7.13137 15.6395C7.1335 10.3053 11.4735 5.96558 16.806 5.96558C19.3941 5.96669 21.8232 6.97422 23.6497 8.80291C25.4763 10.6315 26.4816 13.0622 26.4806 15.6472C26.4785 20.9801 22.1402 25.3194 16.8061 25.3216ZM12.4165 22.3927L12.7101 22.5669C13.9447 23.2996 15.3599 23.6872 16.8029 23.6878H16.8061C21.2381 23.6878 24.8453 20.0805 24.8471 15.6466C24.8479 13.498 24.0124 11.4778 22.4942 9.95782C20.976 8.43788 18.9571 7.60042 16.8093 7.59968C12.3738 7.59968 8.76657 11.2066 8.76481 15.6401C8.76419 17.1595 9.18932 18.6392 9.99424 19.9195L10.1854 20.2237L9.37311 23.191L12.4165 22.3927ZM21.349 17.7301C21.5176 17.8116 21.6315 17.8666 21.6801 17.9477C21.7405 18.0485 21.7405 18.5325 21.5392 19.0973C21.3376 19.6619 20.3719 20.1773 19.9074 20.2467C19.491 20.3089 18.964 20.3349 18.3849 20.1509C18.0338 20.0395 17.5835 19.8908 17.0068 19.6417C14.7406 18.6631 13.2091 16.4667 12.9196 16.0516C12.8994 16.0225 12.8852 16.0021 12.8773 15.9916L12.8753 15.989C12.7474 15.8183 11.8902 14.6746 11.8902 13.4909C11.8902 12.3774 12.4372 11.7938 12.6889 11.5251C12.7062 11.5067 12.7221 11.4898 12.7363 11.4743C12.9578 11.2323 13.2197 11.1718 13.3809 11.1718C13.542 11.1718 13.7034 11.1733 13.8442 11.1803C13.8616 11.1812 13.8797 11.1811 13.8983 11.181C14.0392 11.1802 14.2148 11.1791 14.3881 11.5953C14.4547 11.7555 14.5523 11.9929 14.6551 12.2433C14.8631 12.7497 15.093 13.3092 15.1334 13.3902C15.1938 13.5112 15.2341 13.6523 15.1535 13.8137C15.1415 13.8379 15.1303 13.8608 15.1196 13.8826C15.0591 14.0061 15.0145 14.097 14.9118 14.217C14.8714 14.2641 14.8297 14.315 14.7879 14.3658C14.7048 14.4671 14.6216 14.5683 14.5492 14.6405C14.4282 14.761 14.3022 14.8918 14.4432 15.1338C14.5842 15.3758 15.0694 16.1674 15.788 16.8084C16.5605 17.4975 17.2319 17.7887 17.5722 17.9363C17.6387 17.9651 17.6925 17.9885 17.732 18.0082C17.9737 18.1293 18.1147 18.109 18.2557 17.9477C18.3967 17.7864 18.86 17.2419 19.0211 16.9999C19.1822 16.758 19.3434 16.7983 19.565 16.8789C19.7866 16.9596 20.9751 17.5444 21.2168 17.6654C21.264 17.689 21.3081 17.7103 21.349 17.7301Z" fill="#FDFDFD"/>
</svg>
