<svg width="26" height="26" viewBox="0 0 26 26" fill="none" xmlns="http://www.w3.org/2000/svg">
<path d="M13 26C20.1797 26 26 20.1797 26 13C26 5.8203 20.1797 0 13 0C5.8203 0 0 5.8203 0 13C0 20.1797 5.8203 26 13 26Z" fill="#25D366"/>
<path fill-rule="evenodd" clip-rule="evenodd" d="M13.4285 20.2325H13.4253C12.1315 20.2321 10.8603 19.9075 9.7312 19.2916L5.6333 20.3666L6.72997 16.3609C6.05349 15.1885 5.69753 13.8587 5.69811 12.4963C5.69981 8.23419 9.16758 4.7666 13.4284 4.7666C15.4963 4.76749 17.4372 5.57253 18.8967 7.0337C20.3561 8.4948 21.1594 10.4369 21.1586 12.5024C21.1569 16.7636 17.6905 20.2308 13.4285 20.2325ZM9.92107 17.8923L10.1557 18.0316C11.1422 18.617 12.2729 18.9267 13.4259 18.9272H13.4285C16.9698 18.9272 19.852 16.0449 19.8534 12.5021C19.8541 10.7853 19.1864 9.17108 17.9734 7.95661C16.7603 6.74214 15.1471 6.07299 13.431 6.07239C9.88697 6.07239 7.00468 8.95442 7.00328 12.4969C7.00278 13.7109 7.34246 14.8933 7.98562 15.9162L8.13839 16.1593L7.48932 18.5302L9.92107 17.8923ZM17.0583 14.1668C17.193 14.2319 17.284 14.2759 17.3229 14.3407C17.3711 14.4212 17.3711 14.808 17.2103 15.2592C17.0492 15.7104 16.2776 16.1222 15.9065 16.1776C15.5737 16.2274 15.1526 16.2481 14.6899 16.1011C14.4094 16.012 14.0496 15.8932 13.5888 15.6942C11.778 14.9123 10.5543 13.1573 10.323 12.8256C10.3068 12.8024 10.2955 12.7861 10.2892 12.7777L10.2876 12.7756C10.1854 12.6392 9.50051 11.7254 9.50051 10.7796C9.50051 9.88988 9.93754 9.42354 10.1387 9.20888C10.1525 9.19418 10.1652 9.18065 10.1765 9.16825C10.3536 8.97488 10.5628 8.92653 10.6916 8.92653C10.8203 8.92653 10.9492 8.92772 11.0618 8.93338C11.0757 8.93407 11.0901 8.93399 11.105 8.9339C11.2176 8.93324 11.3579 8.93242 11.4964 9.26494C11.5496 9.39291 11.6275 9.58262 11.7097 9.78271C11.8759 10.1873 12.0596 10.6344 12.0919 10.6991C12.1402 10.7958 12.1724 10.9086 12.108 11.0375C12.0983 11.0569 12.0894 11.0751 12.0808 11.0925C12.0325 11.1913 11.9969 11.2639 11.9148 11.3597C11.8826 11.3974 11.8492 11.438 11.8159 11.4786C11.7494 11.5596 11.683 11.6405 11.6251 11.6981C11.5284 11.7944 11.4278 11.8989 11.5404 12.0923C11.6531 12.2857 12.0407 12.9182 12.6149 13.4303C13.2322 13.9809 13.7687 14.2136 14.0406 14.3315C14.0937 14.3546 14.1367 14.3732 14.1682 14.389C14.3613 14.4857 14.474 14.4696 14.5867 14.3407C14.6994 14.2118 15.0695 13.7767 15.1983 13.5833C15.327 13.39 15.4558 13.4222 15.6328 13.4867C15.8099 13.5512 16.7595 14.0184 16.9527 14.1151C16.9904 14.134 17.0256 14.151 17.0583 14.1668Z" fill="#FDFDFD"/>
</svg>
