<svg width="22" height="22" viewBox="0 0 22 22" fill="none" xmlns="http://www.w3.org/2000/svg">
<path d="M11 22C17.0751 22 22 17.0751 22 11C22 4.92487 17.0751 0 11 0C4.92487 0 0 4.92487 0 11C0 17.0751 4.92487 22 11 22Z" fill="#25D366"/>
<path fill-rule="evenodd" clip-rule="evenodd" d="M11.3625 17.1199H11.3598C10.2651 17.1195 9.18943 16.8449 8.23405 16.3237L4.7666 17.2333L5.69455 13.8439C5.12215 12.8519 4.82095 11.7267 4.82144 10.5739C4.82288 6.96744 7.75714 4.03333 11.3624 4.03333C13.1122 4.03408 14.7545 4.71526 15.9894 5.95164C17.2244 7.18795 17.9041 8.83131 17.9034 10.579C17.902 14.1846 14.9689 17.1184 11.3625 17.1199ZM8.39474 15.1399L8.59326 15.2577C9.42797 15.7531 10.3848 16.0151 11.3603 16.0155H11.3625C14.359 16.0155 16.7978 13.5766 16.799 10.5789C16.7996 9.12626 16.2347 7.76037 15.2082 6.73274C14.1818 5.70511 12.8168 5.13891 11.3647 5.1384C8.36589 5.1384 5.92703 7.57704 5.92584 10.5745C5.92542 11.6018 6.21284 12.6022 6.75705 13.4678L6.88632 13.6735L6.3371 15.6797L8.39474 15.1399ZM14.434 11.9875C14.548 12.0426 14.625 12.0798 14.6578 12.1347C14.6987 12.2028 14.6987 12.53 14.5626 12.9119C14.4263 13.2936 13.7734 13.6421 13.4593 13.689C13.1778 13.7311 12.8215 13.7486 12.43 13.6242C12.1926 13.5489 11.8882 13.4483 11.4982 13.2799C9.96606 12.6183 8.93062 11.1333 8.73492 10.8527C8.72122 10.833 8.71163 10.8193 8.70628 10.8121L8.70496 10.8104C8.61847 10.695 8.03893 9.9217 8.03893 9.12142C8.03893 8.3686 8.40873 7.974 8.57895 7.79237C8.59061 7.77992 8.60134 7.76848 8.61094 7.75799C8.76075 7.59436 8.93782 7.55346 9.04677 7.55346C9.15571 7.55346 9.26479 7.55446 9.36001 7.55925C9.37176 7.55984 9.38398 7.55976 9.39662 7.55969C9.49186 7.55913 9.6106 7.55844 9.72773 7.8398C9.7728 7.94809 9.83874 8.10862 9.90829 8.27794C10.0489 8.62032 10.2043 8.99859 10.2316 9.05333C10.2725 9.13514 10.2997 9.23055 10.2453 9.33967C10.2371 9.35604 10.2295 9.37148 10.2223 9.38623C10.1814 9.46977 10.1513 9.53121 10.0818 9.6123C10.0545 9.64418 10.0263 9.67855 9.99807 9.71292C9.94185 9.7814 9.88562 9.84987 9.83667 9.89864C9.75485 9.98014 9.66968 10.0686 9.76501 10.2322C9.86035 10.3958 10.1884 10.931 10.6742 11.3644C11.1965 11.8302 11.6504 12.0271 11.8805 12.1269C11.9255 12.1464 11.9618 12.1622 11.9885 12.1756C12.1519 12.2574 12.2473 12.2437 12.3426 12.1347C12.438 12.0256 12.7512 11.6574 12.8601 11.4938C12.969 11.3303 13.078 11.3575 13.2278 11.412C13.3777 11.4666 14.1812 11.862 14.3446 11.9438C14.3765 11.9597 14.4064 11.9741 14.434 11.9875Z" fill="#FDFDFD"/>
</svg>
