<svg width="26" height="26" viewBox="0 0 26 26" fill="none" xmlns="http://www.w3.org/2000/svg">
<path d="M13 26C20.1797 26 26 20.1797 26 13C26 5.8203 20.1797 0 13 0C5.8203 0 0 5.8203 0 13C0 20.1797 5.8203 26 13 26Z" fill="#25D366"/>
<path fill-rule="evenodd" clip-rule="evenodd" d="M13.4285 20.2325H13.4253C12.1315 20.2321 10.8603 19.9075 9.73123 19.2916L5.63333 20.3666L6.73 16.3609C6.05352 15.1885 5.69756 13.8587 5.69814 12.4963C5.69984 8.23419 9.16761 4.7666 13.4284 4.7666C15.4963 4.76749 17.4372 5.57253 18.8967 7.0337C20.3562 8.4948 21.1595 10.4369 21.1587 12.5024C21.1569 16.7636 17.6906 20.2308 13.4285 20.2325ZM9.92109 17.892L10.1557 18.0313C11.1422 18.6166 12.273 18.9264 13.4259 18.9268H13.4285C16.9698 18.9268 19.852 16.0445 19.8534 12.5018C19.8541 10.785 19.1865 9.17075 17.9734 7.95628C16.7603 6.74181 15.1471 6.07266 13.431 6.07206C9.88699 6.07206 7.0047 8.95409 7.0033 12.4966C7.0028 13.7106 7.34249 14.8929 7.98564 15.9159L8.13841 16.159L7.48934 18.5299L9.92109 17.892ZM17.0584 14.1666C17.1931 14.2317 17.2841 14.2757 17.3229 14.3405C17.3712 14.4211 17.3712 14.8078 17.2103 15.259C17.0493 15.7102 16.2777 16.122 15.9065 16.1774C15.5738 16.2272 15.1527 16.2479 14.69 16.1009C14.4094 16.0119 14.0497 15.893 13.5888 15.694C11.7781 14.9121 10.5544 13.1571 10.3231 12.8254C10.3069 12.8022 10.2956 12.7859 10.2893 12.7775L10.2877 12.7754C10.1855 12.639 9.50057 11.7252 9.50057 10.7794C9.50057 9.88971 9.93761 9.42337 10.1388 9.20872C10.1526 9.19401 10.1652 9.18048 10.1766 9.16809C10.3536 8.97471 10.5629 8.92637 10.6917 8.92637C10.8204 8.92637 10.9493 8.92756 11.0618 8.93321C11.0757 8.93391 11.0902 8.93382 11.1051 8.93373C11.2177 8.93307 11.358 8.93225 11.4964 9.26477C11.5497 9.39274 11.6276 9.58245 11.7098 9.78255C11.876 10.1872 12.0596 10.6343 12.0919 10.6989C12.1402 10.7956 12.1724 10.9084 12.108 11.0374C12.0984 11.0567 12.0894 11.0749 12.0809 11.0924C12.0325 11.1911 11.997 11.2637 11.9149 11.3595C11.8826 11.3972 11.8493 11.4378 11.8159 11.4785C11.7495 11.5594 11.683 11.6403 11.6252 11.698C11.5285 11.7943 11.4278 11.8988 11.5405 12.0921C11.6532 12.2855 12.0408 12.918 12.615 13.4302C13.2322 13.9807 13.7687 14.2134 14.0406 14.3314C14.0937 14.3544 14.1367 14.3731 14.1683 14.3889C14.3614 14.4856 14.4741 14.4694 14.5867 14.3405C14.6994 14.2116 15.0696 13.7765 15.1983 13.5832C15.3271 13.3899 15.4559 13.4221 15.6329 13.4865C15.81 13.551 16.7596 14.0182 16.9528 14.1149C16.9905 14.1338 17.0257 14.1508 17.0584 14.1666Z" fill="#FDFDFD"/>
</svg>
